<svg xmlns="http://www.w3.org/2000/svg" viewBox="0 0 640 640" height="640" width="640"><defs><clipPath id="a"><path d="M0 512h512V0H0v512z"/></clipPath></defs><g clip-path="url(#a)" transform="matrix(1.25 0 0 -1.25 0 640)"><path d="M464 160c0-61.76-50.24-112-112-112H160C98.24 48 48 98.24 48 160v192c0 61.76 50.24 112 112 112h192c61.76 0 112-50.24 112-112V160zM352 512H160C71.648 512 0 440.352 0 352V160C0 71.648 71.648 0 160 0h192c88.352 0 160 71.648 160 160v192c0 88.352-71.648 160-160 160" fill="#f41e2a"/><path d="M256 176c-44.096 0-80 35.904-80 80 0 44.128 35.904 80 80 80s80-35.872 80-80c0-44.096-35.904-80-80-80m0 208c-70.688 0-128-57.312-128-128s57.312-128 128-128 128 57.312 128 128-57.312 128-128 128M393.6 410.656c9.42 0 17.056-7.636 17.056-17.056 0-9.42-7.636-17.056-17.056-17.056-9.42 0-17.056 7.636-17.056 17.056 0 9.42 7.636 17.056 17.056 17.056" fill="#f41e2a"/></g></svg>