<svg width="14" height="13" viewBox="0 0 14 13" fill="none" xmlns="http://www.w3.org/2000/svg">
<path d="M7.00001 0C3.14021 0 1.88128e-05 2.76239 1.88128e-05 6.15789C1.88128e-05 7.345 0.384318 8.4947 1.11255 9.48863C0.974651 10.9795 0.605051 12.0864 0.0683854 12.6107C-0.00254785 12.68 -0.0202812 12.7861 0.0245188 12.8736C0.0644187 12.9519 0.145852 13 0.233352 13C0.244085 13 0.255052 12.9993 0.266018 12.9977C0.360518 12.9847 2.55572 12.6757 4.14331 11.7803C5.04515 12.1358 6.00554 12.3158 7.00001 12.3158C10.8598 12.3158 14 9.5534 14 6.15789C14 2.76239 10.8598 0 7.00001 0Z" fill="#4F4F4F"/>
</svg>
