<svg width="18" height="17" viewBox="0 0 18 17" fill="none" xmlns="http://www.w3.org/2000/svg">
<path d="M7 10.5148C7 10.2822 6.85633 10.0831 6.65258 10H0.347424C0.143669 10.0831 0 10.2822 0 10.5148C0 12.4366 1.57007 14 3.50003 14C5.42993 14 7 12.4366 7 10.5148Z" fill="#4F4F4F"/>
<path d="M17.6525 10H11.3474C11.1437 10.0831 11 10.2822 11 10.5148C11 12.4366 12.5701 14 14.5 14C16.4299 14 18 12.4366 18 10.5148C17.9999 10.2822 17.8563 10.0831 17.6525 10Z" fill="#4F4F4F"/>
<path d="M11.8588 15.8029H9.57754V4.1602H13.2764L11.3046 8.929H12.5613L14.1523 5.08115L15.7433 8.929H17L14.9354 3.93608C15.3825 3.65891 15.6827 3.15212 15.6827 2.57392C15.6827 1.69922 14.9962 0.987644 14.1522 0.987644C13.8333 0.987644 13.5747 1.25569 13.5747 1.58621C13.5747 1.91673 13.8333 2.18479 14.1522 2.18479C14.3593 2.18479 14.5276 2.35941 14.5276 2.57386C14.5276 2.78837 14.3592 2.96293 14.1522 2.96293H9.57748V0.59857C9.57748 0.26805 9.31892 0 8.99997 0C8.68102 0 8.42246 0.26805 8.42246 0.59857V2.96306H3.84777C3.64074 2.96306 3.47238 2.78843 3.47238 2.57398C3.47238 2.35947 3.6408 2.18491 3.84777 2.18491C4.16666 2.18491 4.42528 1.91686 4.42528 1.58634C4.42528 1.25582 4.16666 0.987767 3.84777 0.987767C3.00384 0.987767 2.3173 1.69935 2.3173 2.57404C2.3173 3.15224 2.61748 3.65897 3.06459 3.9362L1 8.92912H2.25668L3.84771 5.08127L5.43874 8.92912H6.69542L4.72363 4.1602H8.42252V15.8029H6.14128C5.82233 15.8029 5.56377 16.0708 5.56377 16.4014C5.56377 16.732 5.82233 17 6.14128 17H11.8588C12.1778 17 12.4363 16.732 12.4363 16.4014C12.4363 16.0708 12.1778 15.8029 11.8588 15.8029Z" fill="#4F4F4F"/>
</svg>
