<svg width="13" height="12" viewBox="0 0 13 12" fill="none" xmlns="http://www.w3.org/2000/svg">
<path d="M1.9331 6.56287H8.45001C8.76065 6.56287 9.0125 6.31102 9.0125 6.00038C9.0125 5.68973 8.76065 5.43788 8.45001 5.43788H1.9331L2.66037 4.71061C2.88004 4.49094 2.88004 4.1348 2.66037 3.91513C2.44073 3.69546 2.08456 3.69546 1.86489 3.91513L0.17747 5.60258C0.164307 5.61574 0.151857 5.62954 0.140082 5.64394C0.134945 5.6502 0.130482 5.65684 0.125645 5.66325C0.119457 5.6715 0.113082 5.67957 0.107345 5.68815C0.102095 5.69599 0.0975574 5.70413 0.0927574 5.71215C0.088145 5.71988 0.0833075 5.72742 0.07907 5.73537C0.074645 5.74362 0.0709325 5.75209 0.0669576 5.76049C0.0630576 5.7687 0.0589701 5.7768 0.0554826 5.7852C0.0521076 5.79341 0.0493326 5.80178 0.0463702 5.8101C0.0431077 5.8191 0.0396577 5.82799 0.0368827 5.83718C0.0343702 5.8455 0.0325327 5.85394 0.0304327 5.86238C0.0280702 5.87171 0.0254453 5.88101 0.0235703 5.89054C0.0216578 5.90025 0.0204953 5.91008 0.0191078 5.91986C0.0179078 5.92823 0.0162953 5.93648 0.0154703 5.94495C0.0136703 5.9631 0.0127328 5.98136 0.0126953 5.99959C0.0126953 5.99933 0.0126953 5.99985 0.0126953 5.99959C0.0126953 5.99985 0.0126953 6.00098 0.0126953 6.00124C0.0127328 6.0195 0.0136703 6.03773 0.0154703 6.05591C0.0162953 6.06428 0.0178703 6.07241 0.0190328 6.0807C0.0204578 6.0906 0.0216203 6.1005 0.0235703 6.11032C0.0254453 6.11977 0.0280327 6.12892 0.0303952 6.13819C0.0325327 6.1467 0.0344077 6.15529 0.0369577 6.16372C0.0396952 6.17276 0.0431077 6.1815 0.0462577 6.19035C0.0492951 6.19882 0.0520701 6.20734 0.0555201 6.21566C0.0589326 6.22391 0.0629451 6.23182 0.0667701 6.23989C0.07082 6.24847 0.074645 6.25714 0.079145 6.26557C0.08327 6.27326 0.0879575 6.28057 0.0924199 6.28804C0.0973324 6.29632 0.10202 6.30469 0.10742 6.31275C0.112895 6.32096 0.119007 6.32865 0.124895 6.33656C0.129995 6.34335 0.13472 6.35036 0.140157 6.35696C0.15137 6.37061 0.163257 6.3837 0.17567 6.39626C0.17627 6.39686 0.176757 6.39754 0.177357 6.39814L1.86485 8.08566C1.97472 8.1955 2.11865 8.25043 2.26261 8.25043C2.40653 8.2504 2.55053 8.1955 2.66033 8.0857C2.88001 7.86602 2.88001 7.50989 2.66037 7.29022L1.9331 6.56287Z" fill="#4F4F4F"/>
<path d="M11.4492 0.937866H4.32425C4.0136 0.937866 3.76175 1.18971 3.76175 1.50036V3.75035C3.76175 4.061 4.0136 4.31284 4.32425 4.31284C4.6349 4.31284 4.88674 4.061 4.88674 3.75035V2.06286H10.8867V9.93785H4.88674V8.25032C4.88674 7.93967 4.6349 7.68782 4.32425 7.68782C4.0136 7.68782 3.76175 7.93967 3.76175 8.25032V10.5003C3.76175 10.811 4.0136 11.0628 4.32425 11.0628H11.4492C11.7598 11.0628 12.0117 10.811 12.0117 10.5003V1.50036C12.0117 1.18971 11.7598 0.937866 11.4492 0.937866Z" fill="#4F4F4F"/>
</svg>
