<svg width="13" height="17" viewBox="0 0 13 17" fill="none" xmlns="http://www.w3.org/2000/svg">
<path fill-rule="evenodd" clip-rule="evenodd" d="M7 0H2C0.89 0 0 0.89 0 2V15C0 16.1 0.89 17 2 17H11C11.5304 17 12.0391 16.7893 12.4142 16.4142C12.7893 16.0391 13 15.5304 13 15V5L7 0ZM3.5 12C3.22386 12 3 12.2239 3 12.5C3 12.7761 3.22386 13 3.5 13H6.5C6.77614 13 7 12.7761 7 12.5C7 12.2239 6.77614 12 6.5 12H3.5ZM3 9.5C3 9.22386 3.22386 9 3.5 9H9.5C9.77614 9 10 9.22386 10 9.5C10 9.77614 9.77614 10 9.5 10H3.5C3.22386 10 3 9.77614 3 9.5ZM3.5 6C3.22386 6 3 6.22386 3 6.5C3 6.77614 3.22386 7 3.5 7H9.5C9.77614 7 10 6.77614 10 6.5C10 6.22386 9.77614 6 9.5 6H3.5Z" fill="#4F4F4F"/>
</svg>
