<svg xmlns="http://www.w3.org/2000/svg" viewBox="0 0 152.95125 174.99625" height="174.996" width="152.951"><defs><clipPath id="a"><path d="M0 139.997h122.361V0H0v139.997z"/></clipPath></defs><g clip-path="url(#a)" transform="matrix(1.25 0 0 -1.25 0 174.996)"><path d="M87.68 11.5c0-6.352-5.147-11.5-11.5-11.5-6.351 0-11.5 5.148-11.5 11.5S69.83 23 76.18 23c6.353 0 11.5-5.148 11.5-11.5" fill="#fc0"/><path d="M115.13 30.782v-6.585l6.05-6.05V6.05L115.13.001l.002 12.096-6.05.001-6.05.001V0l-6.05 6.05.003 12.097 6.048 6.05v6.584l-.002 60.822V115.8l-6.048 6.05v12.098l6.048 6.05v-12.1h12.1l-.001 12.1 6.05-6.05-.002-12.098-6.05-6.048V91.604l.003-60.822z" fill="#c5c5c5"/><path d="M24.43 114.997c0 6.49-5.26 11.75-11.75 11.75-6.488 0-11.75-5.26-11.75-11.75 0-6.489 5.262-11.75 11.75-11.75 6.49 0 11.75 5.261 11.75 11.75" fill="#e4e6e8"/><path d="M111.18 109.997h-20l-4.5-10h-75.5v-70h100v80z" fill="#fc0"/><path d="M12.027 30.997h98.307l9.666 58H2.361l9.666-58zm100-2H10.334L0 90.997h122.361l-10.334-62zM32.18 108.997h-22v6h2v-4h18v4h2v-6z"/><path d="M21.18 114.012l-5.277 5.278 1.414 1.414 3.864-3.864 3.864 3.864 1.414-1.414-5.278-5.278z"/><path d="M22.181 115.426h-2v14.571h2v-14.571z"/><path d="M37.92 9.997l-18.74 9.37v23.426l18.74-9.37V9.997z" fill="#f5f5f5"/><path d="M37.92 9.997l18.74 9.37v23.426l-18.74-9.37V9.997z" fill="#c5c5c5"/><path d="M37.92 52.163l-18.74-9.37 18.74-9.37 18.74 9.37-18.74 9.37zm0-2.236l14.27-7.134-14.27-7.134-14.267 7.134 14.268 7.134z"/><path d="M45.7 37.785l-16.453 8.227.894 1.79 16.454-8.228-.895-1.789zM91.888 115.29l-1.414 1.414 7.75 7.75 1.414-1.414-7.75-7.75z"/><path d="M98.224 115.29l-7.75 7.75 1.414 1.414 7.75-7.75-1.414-1.414zM76.525 5.212l-7.02 7.02 1.415 1.414 5.604-5.606 11.919 11.918 1.413-1.414L76.525 5.212zM31.306 18.997H11.181v2h20.125v-2zM31.306 13.997H11.181v2h20.125v-2zM21.181 8.997h-10v2h10v-2z"/></g></svg>