<svg xmlns="http://www.w3.org/2000/svg" viewBox="0 0 150.88374 177.13374" height="177.134" width="150.884"><defs><clipPath id="a"><path d="M0 141.707h120.707V0H0v141.707z"/></clipPath></defs><g clip-path="url(#a)" transform="matrix(1.25 0 0 -1.25 0 177.134)"><path d="M42.5 111.957c0-10.355-8.395-18.75-18.75-18.75S5 101.602 5 111.957s8.395 18.75 18.75 18.75 18.75-8.395 18.75-18.75M10 60.707h50v30l-50-30z" fill="#f5f5f5"/><path d="M120 90.707H60v-30h10l50 30z" fill="#ebebeb"/><path d="M71 59.707h-2v39H21v-39h-2v41h52v-41z"/><path d="M81 62.707h-2v43H31v-5h-2v7h52v-45z"/><path d="M91 68.707h-2v43H41v-5h-2v7h52v-45z"/><path d="M101 74.707h-2v43H51v-5h-2v7h52v-45z"/><path d="M111 80.707h-2v43H61v-5h-2v7h52v-45z"/><path d="M70 60.707l50 30v-60l-50-30v60z" fill="#ffd657"/><path d="M70 60.707H10v-60h60v60z" fill="#fc0"/><path d="M52.5 48.207a2.5 2.5 0 0 0-2.5-2.5H30a2.5 2.5 0 1 0 0 5h20a2.5 2.5 0 0 0 2.5-2.5" fill="#f5f5f5"/><path d="M30.667 29.707H0v2h30.667v-2zM30.667 24.707H0v2h30.667v-2zM30.667 19.707H0v2h30.667v-2zM60 89.707H30v2h30v-2zM60 84.707H30v2h30v-2zM60 79.707H30v2h30v-2zM60 74.707H30v2h30v-2zM60 69.707H30v2h30v-2zM45 64.707H30v2h15v-2z"/><path d="M16.164 117.707l7.586-7.586 7.586 7.586H27.75v22h-8v-22h-3.586zm7.586-10.414l-12.414 12.414h6.414v22h12v-22h6.414L23.75 107.293z" fill="#fc0"/><path d="M101.305 28.402c-4.962 0-9-4.037-9-9s4.038-9 9-9 9 4.037 9 9-4.038 9-9 9m0-20c-6.065 0-11 4.935-11 11s4.935 11 11 11 11-4.935 11-11-4.935-11-11-11M119.293 0l-11.625 11.624 1.415 1.414 11.624-11.624L119.293 0z"/></g></svg>