<svg xmlns="http://www.w3.org/2000/svg" viewBox="0 0 150 176.25" height="176.25" width="150"><defs><clipPath id="a"><path d="M0 141h120V0H0v141z"/></clipPath></defs><g clip-path="url(#a)" transform="matrix(1.25 0 0 -1.25 0 176.25)"><path d="M40 90c0 10-10 10-10 10H10s-10 0-10 10 10 10 10 10h40c20 0 20-20 20-20V25s0-5-5-5H40v70z" fill="#c5c5c5"/><path d="M14.556 48.953c-1.019 0-1.614.048-1.647.05l-.782.073-3.046 20.31-5.337 3.2L9 85.202V100h2V84.8L6.255 73.413l4.664-2.798 2.948-19.656c3.551-.092 18.352.29 27.324 12.628l1.617-1.176c-8.985-12.357-23.407-13.458-28.252-13.458"/><path d="M11.996 1.704l-1.675 1.093 18.603 28.51-4.894 19.576 1.94.485 5.106-20.424-19.08-29.24zM29.152 86.803C27.795 88.975 25.028 89 25 89h-9.211v2h9.21c.16 0 3.91-.036 5.849-3.136l-1.696-1.061zM22.166 78.838c-1.364 0-2.27.164-2.35.18l-.816.151V84h2v-3.112c1.305-.106 3.972-.122 6.6 1.028l.801-1.832c-2.308-1.01-4.6-1.246-6.235-1.246M11.648 61.26c-.337 0-.538.016-.571.019l.16 1.994c.033-.003 3.135-.218 6.565 1.497l.895-1.79c-3.071-1.534-5.878-1.72-7.05-1.72"/><path d="M50 30s-10 0-10-10V10s0-5-5-5H20s-5 0-5 5L6.125 0H60v20L50 30z" fill="#ffd657"/><path d="M73 76.334H59.667v25.667H73V76.334z" fill="#f5f5f5"/><path d="M70 50L45 20V0h60l-3.667 37.334L70 50zM80 130h30s10 0 10-10-10-10-10-10H90s-10 0-10-10V80h-5v15s.001 5-5 5c-5 0-10 0-10-10s10-10 10-10V70s-20-.583-20 20v20s0 20 20 20h10z" fill="#fc0"/><path d="M104.825 55.933c-5.88 0-21.71 1.206-30.633 13.477l1.617 1.177c9.055-12.452 26.37-12.728 30.308-12.625L109.122 81h4.49L109 94.838V110h2V95.162L116.388 79h-5.51l-2.991-22.934-.81-.063c-.16-.012-.97-.07-2.252-.07M71 54.136h-2V80h2V54.136z"/><path d="M101 40h-2v16.499h2V40z"/><path d="M102.422 41L68.588 56 62 43.896 102.422 24v17z" fill="#f5f5f5"/><path d="M102.422 36.5L106 30l-.5-10h-2.464l-.613 4v12.5zM103.036 20V0H110l-4.5 20h-2.464z" fill="#c5c5c5"/><path d="M107.323 69.193c-1.606 0-4.34.34-6.504 2.35l1.361 1.465c2.477-2.3 6.135-1.757 6.17-1.752l.32-1.974a9.02 9.02 0 0 0-1.347-.09M90.848 96.803l-1.696 1.06C91.09 100.964 94.842 101 95 101h9.211v-2h-9.21c-.024 0-2.81-.05-4.153-2.197M97.834 88.838c-1.635 0-3.927.235-6.235 1.246l.801 1.832c2.628-1.15 5.297-1.13 6.6-1.028V94h2v-4.83l-.816-.153c-.079-.015-.987-.179-2.35-.179M120 19H85v2h35v-2zM120 14H85v2h35v-2zM120 9H85v2h35V9zM105 4H85v2h20V4zM55.07 139c-7.681 0-13.93-6.28-13.93-14s6.249-14 13.93-14c7.68 0 13.93 6.28 13.93 14s-6.25 14-13.93 14m0-30c-8.784 0-15.93 7.178-15.93 16s7.146 16 15.93 16c8.784 0 15.93-7.178 15.93-16s-7.146-16-15.93-16"/><path d="M55.07 134c-1.9 0-3.444-2.117-3.444-4.719 0-2.602 1.545-4.719 3.444-4.719s3.444 2.117 3.444 4.719c0 2.602-1.545 4.719-3.444 4.719m0-11.438c-3.002 0-5.444 3.014-5.444 6.719 0 3.705 2.442 6.719 5.444 6.719s5.444-3.014 5.444-6.719c0-3.705-2.442-6.719-5.444-6.719"/><path d="M47.44 112.29l-1.954.42 1.737 8.073 4.255.812v3.28h2v-4.934l-4.58-.874-1.457-6.777zM62.699 112.29l-1.458 6.777-4.58.874v4.934h2v-3.28l4.257-.812 1.736-8.072-1.955-.421zM25 126c-3.31 0-6-2.691-6-6s2.69-6 6-6c3.309 0 6 2.691 6 6s-2.691 6-6 6m0-14c-4.411 0-8 3.589-8 8s3.589 8 8 8c4.41 0 8-3.589 8-8s-3.59-8-8-8M85 136c-3.309 0-6-2.691-6-6s2.691-6 6-6 6 2.691 6 6-2.691 6-6 6m0-14c-4.411 0-8 3.589-8 8s3.589 8 8 8 8-3.589 8-8-3.589-8-8-8"/><path d="M26 116.675h-2v6.65h2v-6.65z"/><path d="M28.325 119h-6.65v2h6.65v-2zM84.333 126.284l-3.29 3.29 1.414 1.414 1.71-1.71 3.302 4.128 1.562-1.25-4.698-5.872z"/><path d="M20 34H0v2h20v-2zM20 29H0v2h20v-2zM20 24H0v2h20v-2zM6.125 19H.001v2h6.124v-2z" fill="#c5c5c5"/></g></svg>