<svg xmlns="http://www.w3.org/2000/svg" viewBox="0 0 158.85374 177.5" height="177.5" width="158.854"><defs><clipPath id="a"><path d="M0 142h127.083V0H0v142z"/></clipPath></defs><path d="M145 33.75H95v-2.5h50v2.5z" fill="#c5c5c5"/><path d="M142.156 37.112l-1.768-1.768 2.844-2.843-2.844-2.845 1.768-1.768 4.611 4.613-4.611 4.61z" fill="#c5c5c5"/><g clip-path="url(#a)" transform="matrix(1.25 0 0 -1.25 0 177.5)"><path d="M100.605 89.317l14.852 6.87c-10.131 21.907-31.806 34.796-54.456 34.811v-16.363c16.471-.01 32.234-9.385 39.603-25.318" fill="#fc0"/><path d="M115.457 96.186l-14.853-6.869c10.117-21.873.586-47.805-21.288-57.922-10.937-5.06-22.886-5.206-33.369-1.354-10.482 3.853-19.494 11.705-24.553 22.641a43.449 43.449 0 0 0-4.007 19.646l-16.358.498a59.744 59.744 0 0 1 5.513-27.012c6.955-15.038 19.347-25.835 33.76-31.13 14.414-5.298 30.846-5.097 45.883 1.858 30.076 13.911 43.182 49.568 29.272 79.644" fill="#fc0"/><path d="M42.683 110.606A43.483 43.483 0 0 0 61 114.636L61 130.999a59.744 59.744 0 0 1-25.186-5.54C23.178 119.614 13.552 109.92 7.65 98.424l14.55-7.478c4.292 8.36 11.293 15.409 20.482 19.659" fill="#e4e6e8"/><path d="M22.2 90.946l-14.55 7.48a60.275 60.275 0 0 1-6.62-25.6l16.357-.498A43.78 43.78 0 0 0 22.2 90.946" fill="#c5c5c5"/><path d="M61 30c-22.607 0-41 18.393-41 41s18.393 41 41 41 41-18.393 41-41h-2c0 21.505-17.495 39-39 39S22 92.505 22 71s17.495-39 39-39v-2z" fill="#e4e6e8"/><path d="M61 35c-19.851 0-36 16.149-36 36s16.149 36 36 36v-2c-18.748 0-34-15.252-34-34 0-18.748 15.252-34 34-34 18.748 0 34 15.252 34 34h2c0-19.851-16.149-36-36-36" fill="#e4e6e8"/><path d="M61 40c-17.094 0-31 13.906-31 31h2c0-15.99 13.01-29 29-29s29 13.01 29 29-13.01 29-29 29v2c17.094 0 31-13.906 31-31S78.094 40 61 40" fill="#e4e6e8"/><path d="M61 52.143c-5.475 0-9.929 4.454-9.929 9.929h2c0-4.372 3.557-7.93 7.929-7.93 4.371 0 7.928 3.558 7.928 7.93S65.371 70 61 70c-5.475 0-9.929 4.454-9.929 9.929 0 5.475 4.454 9.929 9.929 9.929 5.475 0 9.928-4.454 9.928-9.93h-2c0 4.373-3.557 7.93-7.928 7.93-4.372 0-7.929-3.557-7.929-7.93C53.071 75.558 56.628 72 61 72c5.475 0 9.928-4.454 9.928-9.928 0-5.475-4.453-9.93-9.928-9.93"/><path d="M62 88.857h-2V96h2v-7.143zM62 46h-2v7.143h2V46zM36 140h-6.832v2H36v-2zM25.168 140H14.334v2h10.834v-2zM9.001 140H1v2h8.001v-2zM36 135H21.834v2H36v-2zM18.501 135H11v2h7.501v-2zM5.834 135H1v2h4.834v-2zM36 129.998H15.668v2H36v-2zM11 129.998H1v2h10v-2zM36 124.998h-8.999v2H36v-2zM23.168 124.998H1v2h22.168v-2zM36 120H13.501v2H36v-2zM8.168 120H1v2h7.168v-2zM36 115H18.001v2H36v-2zM13.001 115H1v2h12.001v-2zM36 110H24.668v2H36v-2zM21 110H11v2h10v-2zM6.834 110H1v2h5.834v-2zM16 105H1v2h15v-2zM110.168 35h-5.834v2h5.834v-2zM99.001 35H86v2h13.001v-2zM121 30h-14.166v2H121v-2zM103.501 30H96v2h7.501v-2zM90.834 30H86v2h4.834v-2zM121 24.998h-20.332v2H121v-2zM96 24.998H86v2h10v-2zM117 19.998h-4.999v2H117v-2zM108.168 19.998H86v2h22.168v-2zM107 15h-8.499v2H107v-2zM93.168 15H86v2h7.168v-2zM118 10h-14.999v2H118v-2zM98.001 10H86v2h12.001v-2zM121 5h-11.332v2H121V5zM106 5H96v2h10V5zM91.834 5H86v2h5.834V5zM101 0H86v2h15V0zM2 6.986h8v8H2v-8zm10-2H0v12h12v-12zM22 6.986h8v8h-8v-8zm10-2H20v12h12v-12zM42 6.986h8v8h-8v-8zm10-2H40v12h12v-12z"/><path d="M11 0H1v2h10V0zM31 0H21v2h10V0zM51 0H41v2h10V0z" fill="#e4e6e8"/><path d="M108.951 129.935l-.287 1.98c1.002.146 2.042.196 3.05.153l-.088-1.999c-.886.04-1.797-.005-2.675-.133m10.18-2.434c-.73.517-1.51.965-2.323 1.332l.827 1.822c.925-.42 1.818-.932 2.651-1.521l-1.156-1.633zm-17.382-.882l-1.315 1.507c.77.67 1.606 1.27 2.484 1.78l1.006-1.727a14.17 14.17 0 0 1-2.175-1.56m22.308-5.334a14.089 14.089 0 0 1-1.236 2.37l1.678 1.09a16.042 16.042 0 0 0 1.412-2.71l-1.854-.75zm-26.585-1.347l-1.919.557c.283.975.663 1.93 1.128 2.84l1.78-.912a14.188 14.188 0 0 1-.989-2.485m29.325-6.978l-1.965.375c.167.873.251 1.77.251 2.664l2 .062V116c0-1.02-.097-2.043-.286-3.04m-31.225-1.521a15.999 15.999 0 0 0-.58 3l1.99.192c.085-.89.256-1.772.508-2.626l-1.918-.566zm27.073-6.531l-1.449 1.379a14.224 14.224 0 0 1 1.656 2.104l1.682-1.082a16.322 16.322 0 0 0-1.889-2.401m-22.16-1.078a16.257 16.257 0 0 0-2.112 2.207l1.57 1.24a14.169 14.169 0 0 1 1.851-1.936l-1.309-1.511zm14.321-3.461l-.473 1.943c.866.21 1.717.506 2.527.878l.834-1.818a15.979 15.979 0 0 0-2.888-1.003m-6.076-.293a16.007 16.007 0 0 0-2.972.715l.65 1.89c.845-.29 1.72-.5 2.602-.625l-.28-1.98zM12.795 45.897a6.513 6.513 0 0 1-2.363 1.342l.603 1.906a8.472 8.472 0 0 0 3.086-1.75l-1.326-1.499zm-9.652-1.083L1.52 45.982a8.644 8.644 0 0 0 2.619 2.389l1.013-1.725a6.626 6.626 0 0 1-2.01-1.832m13.125-7.283l-1.828.812c.373.837.56 1.731.56 2.657l2 .073V41a8.498 8.498 0 0 0-.732-3.47m-14.7-1.58A8.46 8.46 0 0 0 .11 39.189l1.955.421a6.454 6.454 0 0 1 1.116-2.475l-1.614-1.183zM8.46 32.46a8.59 8.59 0 0 0-.87.042l.199 1.99a6.647 6.647 0 0 1 2.704.29l.62-1.901a8.519 8.519 0 0 0-2.653-.422"/><path d="M101 135H61v2h40v-2z" fill="#c5c5c5"/><path d="M98.725 132.31l-1.414 1.414L99.586 136l-2.275 2.276 1.414 1.414 3.689-3.69-3.69-3.689z" fill="#c5c5c5"/></g></svg>