<svg xmlns="http://www.w3.org/2000/svg" viewBox="0 0 151.99001 175.2075" height="175.208" width="151.99"><defs><clipPath id="a"><path d="M0 140.166h121.592V0H0v140.166z"/></clipPath></defs><g clip-path="url(#a)" transform="matrix(1.25 0 0 -1.25 0 175.208)"><path d="M103.018 121.175a8.99 8.99 0 0 1 8.99-8.991 8.99 8.99 0 0 1 8.992 8.99 8.99 8.99 0 0 1-8.991 8.992 8.99 8.99 0 0 1-8.991-8.991M121 47.596H81v-10L93.639 23.88 81 10.166v-10h40v10H94.597l12.637 13.715-12.637 13.715H121v10zM66 70.166v55a5 5 0 0 0 5 5H21a5 5 0 0 1-5-5v-85h50v30z" fill="#e4e6e8"/><path d="M66 125.166v-65h15a5 5 0 0 0-5 5v60a5 5 0 1 1-10 0" fill="#c5c5c5"/><path d="M76 65.166v45h15a5 5 0 0 1-5-5v-40a5 5 0 1 0-10 0" fill="#e4e6e8"/><path d="M86 105.166v-35h15a5 5 0 0 0-5 5v30a5 5 0 0 1-5 5 5 5 0 0 1-5-5M106 85.166v-5 4.25-4.25h15a5 5 0 0 0-5 5v-5 5a5 5 0 0 1-5 5 5 5 0 0 1-5-5" fill="#c5c5c5"/><path d="M96 75.166v15h15a5 5 0 0 1-5-5v-10 5-5a5 5 0 1 0-10 0" fill="#e4e6e8"/><path d="M51.167 75.166H1V0h50.167v75.166z" fill="#fc0"/><path d="M51.167 75.166H56V0h-4.833v75.166z" fill="#c5c5c5"/><path d="M46.084 58.666h-40v10h40v-10z" fill="#e4e6e8"/><path d="M8.167 58.666H6.084v10h2.083v-10z" fill="#c5c5c5"/><path d="M46 50H6v2h40v-2z"/><path d="M13 38.042H6.084v6.916H13v-6.916zM23.916 38.042H17v6.916h6.916v-6.916zM34.832 38.042h-6.916v6.916h6.916v-6.916zM45.664 38.042h-6.916v6.916h6.916v-6.916zM13 27.126H6.084v6.916H13v-6.916zM23.916 27.126H17v6.916h6.916v-6.916zM34.832 27.126h-6.916v6.916h6.916v-6.916zM45.748 27.126h-6.916v6.916h6.916v-6.916zM13 16.21H6.084v6.916H13V16.21zM23.916 16.21H17v6.916h6.916V16.21zM34.748 16.21h-6.916v6.916h6.916V16.21zM45.664 16.21h-6.916v6.916h6.916V16.21zM12.916 5.294H6v6.916h6.916V5.294zM23.832 5.294h-6.916v6.916h6.916V5.294zM34.748 5.294h-6.916v6.916h6.916V5.294zM45.664 5.294h-6.916v6.916h6.916V5.294z" fill="#e4e6e8"/><path d="M11.707 99.459l-1.414 1.414 9.728 9.729 1.414-1.414-9.728-9.729z"/><path d="M20.021 99.459l-9.728 9.729 1.415 1.414 9.727-9.729-1.414-1.414zM41 106.666H31v2h10v-2zM41 101.666H31v2h10v-2zM21 84.166H11v2h10v-2zM37 80.166h-2v10h2v-10z"/><path d="M41 84.166H31v2h10v-2zM70.5 119.166h-2.83v2h2.83v-2zM66.013 119.166h-4.488v2h4.488v-2zM59.314 119.166H56v2h3.314v-2zM70.5 114.166h-5.869v2H70.5v-2zM63.25 114.166h-3.107v2h3.107v-2zM58.003 114.166H56v2h2.003v-2zM70.5 109.164h-8.423v2H70.5v-2zM60.143 109.164H56v2h4.143v-2zM70.5 104.164h-3.729v2H70.5v-2zM65.184 104.164H56v2h9.184v-2zM70.5 99.166h-9.321v2H70.5v-2zM58.97 99.166H56v2h2.97v-2zM70.5 94.166h-7.457v2H70.5v-2zM60.972 94.166H56v2h4.972v-2zM70.5 89.166h-4.694v2H70.5v-2zM64.286 89.166h-4.143v2h4.143v-2zM58.417 89.166H56v2h2.417v-2zM62.214 84.166H56v2h6.214v-2z"/><path d="M101.592 20.083h-2v4.5h2v-4.5zM106.592 20.083h-2v10h2v-10z" fill="#c5c5c5"/><path d="M86.592 20.083h-2v10h2v-10zM81.592 20.083h-2v15h2v-15zM76.592 20.083h-2v30.083h2V20.083zM71.592 20.083h-2v15h2v-15zM66.592 20.083h-2v10h2v-10zM61.592 20.083h-2v4.5h2v-4.5z" fill="#fc0"/><path d="M57 125.166h-2v3.625h2v-3.625zM52 125.166h-2v10h2v-10zM47 125.166h-2v5h2v-5zM42 125.166h-2v10h2v-10zM37 125.166h-2v5h2v-5zM32 125.166h-2v10h2v-10zM27 125.166h-2v15h2v-15z" fill="#c5c5c5"/><path d="M22 125.166h-2v5h2v-5zM17 125.166h-2v10h2v-10z" fill="#fc0"/><path d="M116.592 20.083h-2v22.583h2V20.083zM111.592 20.083h-2v19.083h2V20.083zM121.592 20.083h-2v10.083h2V20.083z" fill="#c5c5c5"/><path d="M12 125.166h-2v4.5h2v-4.5zM7 125.166H5v6.25h2v-6.25zM2 125.166H0v3.625h2v-3.625z" fill="#fc0"/><path d="M89.084 3.673L68.053 14.189l.894 1.789 18.969-9.485 9.71 29.13 20.167 20.167 1.414-1.414-19.833-19.833-10.29-30.87z" fill="#c5c5c5"/><path d="M71 15.083a2.5 2.5 0 1 1-5 0 2.5 2.5 0 0 1 5 0M91 5.083a2.5 2.5 0 1 1-5 0 2.5 2.5 0 0 1 5 0M101 35.083a2.5 2.5 0 1 1-5 0 2.5 2.5 0 0 1 5 0M121 55.083a2.5 2.5 0 1 1-5 0 2.5 2.5 0 0 1 5 0" fill="#fc0"/><path d="M94.34 119.146c-1.29 0-2.34-1.05-2.34-2.34a2.343 2.343 0 0 1 2.34-2.341 2.343 2.343 0 0 1 2.34 2.341c0 1.29-1.05 2.34-2.34 2.34m0-6.681a4.345 4.345 0 0 0-4.34 4.341 4.345 4.345 0 0 0 4.34 4.34 4.345 4.345 0 0 0 4.34-4.34 4.345 4.345 0 0 0-4.34-4.341M107.647 105.84c-1.29 0-2.34-1.05-2.34-2.341a2.343 2.343 0 0 1 2.34-2.341 2.343 2.343 0 0 1 2.34 2.34 2.343 2.343 0 0 1-2.34 2.342m0-6.682a4.346 4.346 0 0 0-4.34 4.34 4.345 4.345 0 0 0 4.34 4.342 4.345 4.345 0 0 0 4.34-4.341 4.346 4.346 0 0 0-4.34-4.341M91.707 99.467l-1.414 1.414 20 20 1.414-1.414-20-20z"/></g></svg>