<svg xmlns="http://www.w3.org/2000/svg" viewBox="0 0 337.25125 470" height="470" width="337.251"><defs><clipPath id="a"><path d="M0 376h269.801V0H0v376z"/></clipPath></defs><g clip-path="url(#a)" transform="matrix(1.25 0 0 -1.25 0 470)"><path d="M12 340h67.719v-42c0-5.516-4.489-10-10-10-5.516 0-10 4.484-10 10v24c0 3.312-2.688 6-6 6-3.317 0-6-2.688-6-6v-24c0-12.129 9.867-22 22-22 12.129 0 22 9.871 22 22v42h166.082V79.199h-61.199c-3.313 0-6-2.683-6-6V12H12v328zm45.719 24c8.527 0 15.937-4.883 19.582-12H38.129c3.683 7.16 11.18 12 19.59 12M202.602 20.539v46.66h46.66l-46.66-46.66zm64.96 47.988a5.994 5.994 0 0 1 2.239 4.672V346a6 6 0 0 1-6 6H90.215c-4.281 13.883-17.231 24-32.496 24-15.024 0-28.168-10.012-32.492-24H6c-3.312 0-6-2.688-6-6V6c0-3.312 2.688-6 6-6h190.551c1.937 0 3.621.875 4.719 2.234l66.292 66.293z" fill="#f41e2a"/><path d="M215.801 99.602c3.316 0 6 2.683 6 6a6 6 0 0 1-6 6H54c-3.312 0-6-2.688-6-6 0-3.317 2.688-6 6-6h161.801zM54 135.602h161.801c3.316 0 6 2.683 6 6a6 6 0 0 1-6 6H54c-3.312 0-6-2.688-6-6 0-3.317 2.688-6 6-6M54 171.602h161.801c3.316 0 6 2.683 6 6a6 6 0 0 1-6 6H54c-3.312 0-6-2.688-6-6 0-3.317 2.688-6 6-6M54 207.602h161.801c3.316 0 6 2.683 6 6a6 6 0 0 1-6 6H54c-3.312 0-6-2.688-6-6 0-3.317 2.688-6 6-6M54 243.602h161.801c3.316 0 6 2.683 6 6a6 6 0 0 1-6 6H54c-3.312 0-6-2.688-6-6 0-3.317 2.688-6 6-6" fill="#f41e2a"/></g></svg>