<svg xmlns="http://www.w3.org/2000/svg" viewBox="0 0 420.79376 423.65875" height="423.659" width="420.794"><defs><clipPath id="a"><path d="M0 338.927h336.635V0H0v338.927z"/></clipPath></defs><g clip-path="url(#a)" transform="matrix(1.25 0 0 -1.25 0 423.659)"><path d="M295.63 12.052H40.987v192.175l127.319 118.22 127.326-118.22V12.052zm38.657 172.08L168.305 338.244 2.33 184.132c-2.315-2.17-2.46-5.844-.282-8.188 2.148-2.35 5.823-2.459 8.166-.289l19.213 17.83V.5h277.756v192.985l19.22-17.83a5.673 5.673 0 0 1 3.928-1.549c1.577 0 3.103.623 4.239 1.838a5.775 5.775 0 0 1-.283 8.188" fill="#f41e2a"/><path d="M295.63 12.052H40.987v192.175l127.319 118.22 127.326-118.22V12.052zm38.657 172.08L168.305 338.244 2.33 184.132c-2.315-2.17-2.46-5.844-.282-8.188 2.148-2.35 5.823-2.459 8.166-.289l19.213 17.83V.5h277.756v192.985l19.22-17.83a5.673 5.673 0 0 1 3.928-1.549c1.577 0 3.103.623 4.239 1.838a5.775 5.775 0 0 1-.283 8.188z" fill="none" stroke="#f41e2a" stroke-miterlimit="10"/><path d="M87.295 203.041h57.869v-57.869H87.295v57.869zm-11.588-69.457h81.017v81.009H75.707v-81.009zM249.314 145.172h-57.869v57.869h57.869v-57.869zm11.588 69.421h-81.009v-81.009h81.009v81.009zM87.295 98.856h57.869V40.987H87.295v57.869zM75.707 29.434h81.017v81.009H75.707V29.434zM249.314 40.986h-57.869v57.869h57.869V40.986zm11.588 69.458h-81.009V29.435h81.009v81.009z" fill="#f41e2a" stroke="#f41e2a" stroke-miterlimit="10"/></g></svg>