<svg xmlns="http://www.w3.org/2000/svg" viewBox="0 0 503.75 462.66751" height="462.668" width="503.75"><defs><clipPath id="a"><path d="M0 370.134h403V0H0v370.134z"/></clipPath></defs><g clip-path="url(#a)" transform="matrix(1.25 0 0 -1.25 0 462.668)"><path d="M390.154 222.21c-4.102-27.092-27.875-47.521-55.299-47.521-27.423 0-51.196 20.429-55.298 47.521l-.348 2.3h111.293l-.348-2.3zm-97.319 16.997c4.94 19.886 24.051 56.133 40.29 83.423l1.722 2.895 1.717-2.898c7.945-13.411 34.336-59.062 40.34-83.424l.61-2.478h-85.296l.617 2.482zm42.021 117.511a6.227 6.227 0 1 0 0-12.454 6.227 6.227 0 0 0 0 12.454m-96.84-314.117h-72.189v16.482h72.188V42.601zm29.541-30.385h-131.27v18.169h131.27V12.216zM209.32 293.748V71.297h-14.794V293.75l2.351-.419c3.373-.6 6.71-.6 10.093-.001l2.35.418zm-7.397 44.445c9.126 0 16.55-7.423 16.55-16.549s-7.424-16.55-16.55-16.55c-9.125 0-16.55 7.424-16.55 16.55 0 9.126 7.425 16.549 16.55 16.549M110.19 180.965l.61-2.479H25.505l.616 2.483c4.943 19.889 24.054 56.135 40.291 83.423l1.723 2.895 1.717-2.898c7.945-13.412 34.336-59.066 40.338-83.424m13.6-14.693l-.349-2.3c-4.102-27.092-27.875-47.522-55.298-47.522-27.423 0-51.196 20.43-55.298 47.522l-.348 2.3H123.79zM68.142 299.63c4.006 0 7.266-3.26 7.266-7.266s-3.26-7.264-7.266-7.264c-4.007 0-7.266 3.258-7.266 7.264s3.26 7.266 7.266 7.266m328.75-62.905h-7.078l-.318 1.613c-5.259 26.683-32.673 74.295-44.216 93.527l-.878 1.464c6.02 3.357 10.097 9.78 10.097 17.162 0 10.849-8.795 19.643-19.644 19.643-9.939 0-18.132-7.388-19.44-16.969l-1.933-.432-2.042-.456-83.342-18.636-.713 1.354c-5.006 9.506-14.764 15.411-25.465 15.411-15.21 0-27.82-11.888-28.71-27.065l-.089-1.519-88.48-19.039-.766 1.048c-3.669 5.018-9.55 8.013-15.733 8.013-10.742 0-19.48-8.739-19.48-19.482a19.494 19.494 0 0 1 8.472-16.058l1.55-1.066-.968-1.612c-11.543-19.233-38.957-66.85-44.215-93.528l-.318-1.614H6.107A6.114 6.114 0 0 1 0 172.377c0-37.574 30.57-68.144 68.143-68.144 37.574 0 68.143 30.57 68.143 68.144a6.114 6.114 0 0 1-6.107 6.107h-7.078l-.318 1.614c-5.257 26.677-32.67 74.295-44.214 93.528l-.967 1.612 1.55 1.066c4.478 3.079 7.491 7.908 8.266 13.248l.2 1.376 88.024 18.941.701-1.36a28.876 28.876 0 0 1 5.373-7.315l.594-.588V71.295h-22.59a6.114 6.114 0 0 1-6.107-6.107v-22.59H130.18a6.116 6.116 0 0 1-6.108-6.108V6.108A6.115 6.115 0 0 1 130.18 0h143.485a6.115 6.115 0 0 1 6.108 6.108v30.384a6.116 6.116 0 0 1-6.108 6.109H250.23V65.19a6.115 6.115 0 0 1-6.107 6.108h-22.59v229.31l.594.588c5.138 5.078 8.165 11.825 8.523 18.996l.075 1.521 83.054 18.57 2.011.45 1.791.4a19.728 19.728 0 0 1 7.728-7.803l-.879-1.465c-11.543-19.233-38.956-66.849-44.214-93.527l-.319-1.613h-7.077a6.115 6.115 0 0 1-6.107-6.108c0-37.574 30.568-68.143 68.143-68.143S403 193.043 403 230.617a6.116 6.116 0 0 1-6.108 6.108" fill="#f41e2a"/></g></svg>