<svg id="icons" xmlns="http://www.w3.org/2000/svg" viewBox="0 0 30 30"><defs><style>.cls-1{fill:none;stroke:#000;stroke-miterlimit:10;}</style></defs><title> cashback</title><path class="cls-1" d="M4.93,7.11l-.48.49c-.54.55-.69,1.28-.35,1.63l.61.64c.34.34,1,.18,1.58-.37L6.77,9a1.55,1.55,0,0,0,.5-1.38L6.79,6.05a1.51,1.51,0,0,1,.55-1.43c.51-.53,1.24-.72,1.57-.37l.62.64c.34.35.18,1.08-.35,1.63L8.7,7" transform="translate(-0.03 -0.07)"/><line class="cls-1" x1="4.37" y1="9.48" x2="2.93" y2="10.97"/><ellipse class="cls-1" cx="6.81" cy="7.06" rx="7.62" ry="4.84" transform="translate(-3.02 7.18) rotate(-47.16)"/><path class="cls-1" d="M1.51,12.54l1.93,2c1.86,1.93,5.75,1,8.67-2s3.79-7,1.93-9l-1.93-2" transform="translate(-0.03 -0.07)"/><path class="cls-1" d="M24.89,16.89l-.32-.54c-.34-.59-.92-.88-1.28-.65l-.66.41c-.36.23-.38.89,0,1.48l.31.53a1.32,1.32,0,0,0,1.05.74l1.42-.09c.35,0,.74.22,1.08.78s.33,1.25,0,1.48l-.66.41c-.37.23-.94-.06-1.29-.65l-.31-.53" transform="translate(-0.03 -0.07)"/><line class="cls-1" x1="26.07" y1="21.17" x2="27.01" y2="22.77"/><line class="cls-1" x1="22.93" y1="15.83" x2="21.99" y2="14.23"/><path class="cls-1" d="M20.91,20.84C19,17.6,19.08,14,21.08,12.7s5.16.36,7.07,3.6S30,23.19,28,24.44,22.82,24.08,20.91,20.84Z" transform="translate(-0.03 -0.07)"/><path class="cls-1" d="M21.08,12.7,19,14c-2,1.25-2.08,4.89-.17,8.13s5.07,4.86,7.07,3.6L28,24.44" transform="translate(-0.03 -0.07)"/><path class="cls-1" d="M6.48,22.42l-.53.2c-.58.21-.94.69-.81,1.07l.24.69c.13.38.71.51,1.29.3l.52-.19A1.25,1.25,0,0,0,8,23.65l.18-1.34c0-.33.33-.65.89-.85s1.15-.08,1.28.3l.24.69c.13.38-.23.86-.81,1.07l-.52.19" transform="translate(-0.03 -0.07)"/><line class="cls-1" x1="10.47" y1="22.03" x2="12.04" y2="21.45"/><line class="cls-1" x1="5.24" y1="23.96" x2="3.66" y2="24.54"/><ellipse class="cls-1" cx="7.88" cy="23.07" rx="6.14" ry="4" transform="translate(-7.8 4.31) rotate(-21.09)"/><path class="cls-1" d="M2.12,25.19l.75,2.17c.72,2.09,3.89,2.83,7.07,1.65s5.17-3.81,4.45-5.9l-.75-2.17" transform="translate(-0.03 -0.07)"/></svg>