<svg xmlns="http://www.w3.org/2000/svg" viewBox="0 0 24 27"><defs><style>.cls-1{fill:none;stroke:#000;stroke-miterlimit:10;}</style></defs><title>trevel</title><g id="Слой_2" data-name="Слой 2"><g id="icons"><path class="cls-1" d="M23,19.73a.34.34,0,0,0,.33-.05.39.39,0,0,0,.14-.32V17.45a1,1,0,0,0-.42-.85l-8.74-5.9a.93.93,0,0,1-.42-.85V3.21a2.87,2.87,0,0,0-.19-1c-.34-1-.83-1.54-1.45-1.65A.92.92,0,0,0,12,.5a1.56,1.56,0,0,0-.33.05l-.11,0a.85.85,0,0,0-.17.08,1.28,1.28,0,0,0-.61.48,4.56,4.56,0,0,0-.42.69l-.14.37a3.73,3.73,0,0,0-.14,1V9.85a.93.93,0,0,1-.42.85L.92,16.6a1,1,0,0,0-.42.85v1.91a.39.39,0,0,0,.14.32.34.34,0,0,0,.33.05l8.65-3.18a.24.24,0,0,1,.32,0,.45.45,0,0,1,.14.35v5.15a1.14,1.14,0,0,1-.37.91l-1.17.95a1.13,1.13,0,0,0-.37.91v1.27a.36.36,0,0,0,.14.32.33.33,0,0,0,.32.05l2.9-.95a1.38,1.38,0,0,1,.94,0l2.9.95a.33.33,0,0,0,.32-.05.36.36,0,0,0,.14-.32V24.84a1.13,1.13,0,0,0-.37-.91L14.29,23a1.14,1.14,0,0,1-.37-.91V16.92a.41.41,0,0,1,.14-.37.27.27,0,0,1,.32,0Z"/></g></g></svg>