<svg id="icons" xmlns="http://www.w3.org/2000/svg" viewBox="0 0 24.36 25.72"><defs><style>.cls-1{fill:none;stroke:#000;stroke-miterlimit:10;}</style></defs><title>all-card</title><path class="cls-1" d="M13.32,22.41l.6-1.5A4.18,4.18,0,0,0,16.4,19l.79-2" transform="translate(-3.24 -0.21)"/><path class="cls-1" d="M14.13,8.91,10.85,10a2.53,2.53,0,0,0-1.79,1.63L7.71,15,5.88,19.59" transform="translate(-3.24 -0.21)"/><polygon class="cls-1" points="0.65 21.5 1.65 19 11.07 22.57 10.07 25.07 0.65 21.5"/><path class="cls-1" d="M10.45,13.84,16,11.35c1.28-.58,1.79,2.25.15,3.21l-1.74.79-.6,1.5A2,2,0,0,1,11,18.09" transform="translate(-3.24 -0.21)"/><path class="cls-1" d="M12.45,12.94,17.11,1.41A1.08,1.08,0,0,1,18.5.78l7.93,3A1.05,1.05,0,0,1,27,5.17l-5,12.5a1.08,1.08,0,0,1-1.38.62l-6.45-2.44" transform="translate(-3.24 -0.21)"/><line class="cls-1" x1="21.7" y1="3.02" x2="15.93" y2="17.52"/></svg>