<svg xmlns="http://www.w3.org/2000/svg" viewBox="0 0 42 27"><defs><style>.cls-1{fill:#ff2433;}</style></defs><title>avtocredits</title><path class="cls-1" d="M384.67,241.92a2.23,2.23,0,0,1,.37-1.31h-4.19a1.91,1.91,0,0,1-1.49-.71,1.94,1.94,0,0,1-.37-1.65l3.11-17.37h9.71v-1.54H381.46a.78.78,0,0,0-.76.64l-3.22,18a3.47,3.47,0,0,0,3.37,4.22h3.85A2,2,0,0,1,384.67,241.92Z" transform="translate(-377.4 -219.34)"/><path class="cls-1" d="M419.24,237.69l-2.19-7.95a.76.76,0,0,0-.74-.57H410l-3.49-9.33a.78.78,0,0,0-.72-.5h-8.84v1.54h8.3l3.5,9.33a.77.77,0,0,0,.72.5h6.28l2,7.41a1.91,1.91,0,0,1-1.83,2.49h-4.55a2.62,2.62,0,0,1,.43,1.55h4.12a3.46,3.46,0,0,0,3.31-4.47Z" transform="translate(-377.4 -219.34)"/><path class="cls-1" d="M404.51,242.16a2.81,2.81,0,0,1,0-1.32,1,1,0,0,1,.08-.23H391.43a2.69,2.69,0,0,1,.4,1.31,1.93,1.93,0,0,1,0,.24Z" transform="translate(-377.4 -219.34)"/><path class="cls-1" d="M409.81,230.74h-10.7a3.22,3.22,0,0,1-3.23-2.49l-1.56-8a.74.74,0,0,1,.16-.64.76.76,0,0,1,.6-.28h10.68a.77.77,0,0,1,.71.48l4,9.85a.77.77,0,0,1-.07.72A.75.75,0,0,1,409.81,230.74ZM396,220.88l1.38,7.07a1.68,1.68,0,0,0,1.72,1.24h9.55l-3.42-8.31Z" transform="translate(-377.4 -219.34)"/><path class="cls-1" d="M388.06,246.34a4.53,4.53,0,1,1,4.52-4.53A4.53,4.53,0,0,1,388.06,246.34Zm0-7.52a3,3,0,1,0,3,3A3,3,0,0,0,388.06,238.82Z" transform="translate(-377.4 -219.34)"/><path class="cls-1" d="M408.18,246.34a4.53,4.53,0,1,1,4.53-4.53A4.53,4.53,0,0,1,408.18,246.34Zm0-7.52a3,3,0,1,0,3,3A3,3,0,0,0,408.18,238.82Z" transform="translate(-377.4 -219.34)"/></svg>