<svg id="Capa_1" data-name="Capa 1" xmlns="http://www.w3.org/2000/svg" viewBox="0 0 49 35"><defs><style>.cls-1{fill:#ff2433;}</style></defs><title>credits</title><path class="cls-1" d="M331.32,251.52a.77.77,0,0,1-.67-.39l-8.9-16,1.33-.71,8.62,15.54,34.8-9.29.4,1.43-35.38,9.44Z" transform="translate(-321.75 -216.52)"/><path class="cls-1" d="M355.52,241.62l13.08-3.49-.4-1.43-12.94,3.46A2.82,2.82,0,0,1,355.52,241.62Z" transform="translate(-321.75 -216.52)"/><path class="cls-1" d="M348.55,242l-15.15,4-8.62-15.53-1.33.71,8.9,16.05a.81.81,0,0,0,.87.36l15.57-4.16A2.65,2.65,0,0,1,348.55,242Z" transform="translate(-321.75 -216.52)"/><path class="cls-1" d="M328.46,232l-.4-1.43a3.83,3.83,0,0,0,2.64-2,3.27,3.27,0,0,0-.23-3l1.33-.7a4.68,4.68,0,0,1,.3,4.23A5.39,5.39,0,0,1,328.46,232Z" transform="translate(-321.75 -216.52)"/><path class="cls-1" d="M339.37,241.66a6.54,6.54,0,0,0-7.12-2.8l-.4-1.43A8.13,8.13,0,0,1,340.7,241Z" transform="translate(-321.75 -216.52)"/><path class="cls-1" d="M361.93,222.82a8.08,8.08,0,0,1-6.94-3.76l1.34-.71a6.53,6.53,0,0,0,7.11,2.8l.41,1.43A7.32,7.32,0,0,1,361.93,222.82Z" transform="translate(-321.75 -216.52)"/><path class="cls-1" d="M363.89,235.11a4.71,4.71,0,0,1-.29-4.23,5.37,5.37,0,0,1,3.63-2.9l.4,1.43a3.83,3.83,0,0,0-2.63,2.05,3.25,3.25,0,0,0,.23,2.94Z" transform="translate(-321.75 -216.52)"/><path class="cls-1" d="M348,247.08a.79.79,0,0,1-.49-.17.71.71,0,0,1-.27-.64l.73-7.07-8.81-15.88a.72.72,0,0,1,0-.64.75.75,0,0,1,.5-.43l7.4-2a.77.77,0,0,1,.87.37l8.68,16.11a.65.65,0,0,1,.08.41l-.73,7.23a.76.76,0,0,1-.55.64l-7.17,2Zm-7.05-23.65,8.32,15a1.72,1.72,0,0,1,.22.84l-.63,6.05,5.61-1.58.66-6.5-8.29-15.39Z" transform="translate(-321.75 -216.52)"/><path class="cls-1" d="M334.61,243.49a.75.75,0,0,1-.67-.39l-8.9-16a.72.72,0,0,1,0-.64.73.73,0,0,1,.5-.42l35.38-9.45a.77.77,0,0,1,.87.36l8.9,16.06a.72.72,0,0,1,0,.64.76.76,0,0,1-.5.42l-14.1,3.79-.4-1.42,13.18-3.55-8.16-14.71-33.88,9L335,241.88l13.52-3.58.4,1.43-14.1,3.74Z" transform="translate(-321.75 -216.52)"/></svg>