<svg id="Capa_1" data-name="Capa 1" xmlns="http://www.w3.org/2000/svg" viewBox="0 0 41 36"><defs><style>.cls-1{fill:#ff2433;}</style></defs><title>debit_card</title><path class="cls-1" d="M417.78,204" transform="translate(-381.28 -209.95)"/><path class="cls-1" d="M410.3,245.06l-27.21-13.15a3.2,3.2,0,0,1-1.63-1.83,3.23,3.23,0,0,1,.13-2.46L389,211.79a3.22,3.22,0,0,1,1.81-1.65,3.11,3.11,0,0,1,2.43.13l27.2,13.15a3.16,3.16,0,0,1,1.63,1.83,3.23,3.23,0,0,1-.12,2.46l-7.44,15.83a3.16,3.16,0,0,1-4.23,1.52Zm-19-33.45a1.65,1.65,0,0,0-.93.85L383,228.29a1.65,1.65,0,0,0-.07,1.27,1.68,1.68,0,0,0,.84.95h0L411,243.65a1.64,1.64,0,0,0,2.19-.78L420.58,227a1.65,1.65,0,0,0,.06-1.27,1.61,1.61,0,0,0-.84-1l-27.2-13.14a1.65,1.65,0,0,0-.71-.17A1.78,1.78,0,0,0,391.34,211.61Z" transform="translate(-381.28 -209.95)"/><path class="cls-1" d="M414.61,241.56l-31.56-15.25a.79.79,0,0,1-.36-1l2.39-5.08a.77.77,0,0,1,.43-.4.8.8,0,0,1,.59,0l31.56,15.24a.79.79,0,0,1,.39.45.76.76,0,0,1,0,.59l-2.38,5.08a.79.79,0,0,1-1,.37Zm-28.48-20-1.72,3.67,30.17,14.58,1.72-3.67Z" transform="translate(-381.28 -209.95)"/><polygon class="cls-1" points="33.97 19.49 34.63 18.09 25.65 13.75 24.99 15.16 33.97 19.49"/><rect class="cls-1" x="8.63" y="34.44" width="29.63" height="1.56"/></svg>