<svg xmlns="http://www.w3.org/2000/svg" viewBox="0 0 14 14"><path d="M13.41,12.81h-1v-10a.6.6,0,0,0-1.19,0v10h-2V5.29A.6.6,0,0,0,8,5.29v7.52H6V8.2a.6.6,0,0,0-1.19,0v4.61h-2V9.21a.6.6,0,0,0-1.19,0v3.6h-1A.6.6,0,0,0,.59,14H13.37a.63.63,0,0,0,.63-.59.6.6,0,0,0-.59-.6Zm0,0"/><path d="M1.49,6.12A16.32,16.32,0,0,0,8.77,2.06V3.21a.6.6,0,0,0,.59.59.61.61,0,0,0,.6-.62V.59A.6.6,0,0,0,9.36,0H6.75a.6.6,0,0,0-.6.59.6.6,0,0,0,.6.6H8A15.25,15.25,0,0,1,1.22,5a.57.57,0,0,0-.45.69.58.58,0,0,0,.72.41Zm0,0"/></svg>