<svg id="Capa_1" data-name="Capa 1" xmlns="http://www.w3.org/2000/svg" viewBox="0 0 39 36"><defs><style>.cls-1{fill:#fff;}.cls-2{fill:#ff2433;}</style></defs><title>ipoteka</title><polyline class="cls-1" points="34.21 16.31 34.21 35.23 4.79 35.23 4.79 16.31"/><path class="cls-2" d="M425.27,276.37H395.86a.77.77,0,0,1-.78-.77V256.68h1.55v18.16h27.86V256.68h1.56V275.6A.77.77,0,0,1,425.27,276.37Z" transform="translate(-391.06 -240.37)"/><path class="cls-2" d="M429.29,254.89H424.7a.78.78,0,0,1-.53-.21l-13.6-12.5-13.47,12.5a.78.78,0,0,1-.53.21h-4.73a.8.8,0,0,1-.65-.34.77.77,0,0,1-.07-.72l4.66-10.91a.77.77,0,0,1,.72-.46H408l2-1.88a.77.77,0,0,1,1.06,0l2.05,1.88h11.49a.79.79,0,0,1,.72.46L430,253.83a.75.75,0,0,1-.07.72A.77.77,0,0,1,429.29,254.89ZM425,253.36h3.11l-4-9.37H414.8Zm-32,0h3.25l10.1-9.37H397Z" transform="translate(-391.06 -240.37)"/><path class="cls-2" d="M414.93,275.87H406.2a.77.77,0,0,1-.78-.77V260.6a.77.77,0,0,1,.78-.76h8.73a.77.77,0,0,1,.77.76v14.5A.77.77,0,0,1,414.93,275.87ZM407,274.34h7.17v-13H407Z" transform="translate(-391.06 -240.37)"/><path class="cls-2" d="M410.5,256.7a3.43,3.43,0,1,1,3.47-3.43A3.46,3.46,0,0,1,410.5,256.7Zm0-5.32a1.9,1.9,0,1,0,1.92,1.89A1.92,1.92,0,0,0,410.5,251.38Z" transform="translate(-391.06 -240.37)"/></svg>