<svg width="10" height="12" viewBox="0 0 10 12" fill="none" xmlns="http://www.w3.org/2000/svg">
<path d="M8.33301 4.88889V3.33332C8.33301 1.51111 6.8219 0 4.99969 0C3.17745 0 1.66634 1.51111 1.66634 3.33335V4.88891C0.910774 4.88891 0.333008 5.46668 0.333008 6.22225V8.44447C0.333008 10.4 1.93301 12 3.88856 12H6.11078C8.06634 12 9.66634 10.4 9.66634 8.44447V6.22222C9.66634 5.51111 9.08857 4.88889 8.33301 4.88889ZM5.2219 8.40001V9.55557C5.2219 9.68889 5.13301 9.77778 4.99969 9.77778C4.86636 9.77778 4.77747 9.68889 4.77747 9.55557V8.40001C4.51081 8.31112 4.33303 8.04443 4.33303 7.77779C4.33303 7.42223 4.64415 7.11111 4.99971 7.11111C5.35526 7.11111 5.66639 7.42223 5.66639 7.77779C5.66634 8.08889 5.48856 8.31112 5.2219 8.40001ZM6.99967 4.88889H2.99967V3.33332C2.99967 2.22222 3.88856 1.33333 4.99966 1.33333C6.11076 1.33333 6.99965 2.22222 6.99965 3.33332V4.88889H6.99967Z" fill="#4F4F4F"/>
</svg>
