<svg width="12" height="12" viewBox="0 0 12 12" fill="none" xmlns="http://www.w3.org/2000/svg">
<path d="M6.00002 0.300049C2.69162 0.300049 1.61253e-05 2.72245 1.61253e-05 5.70005C1.61253e-05 6.74105 0.329416 7.74925 0.953616 8.62085C0.835416 9.92825 0.518616 10.8988 0.0586161 11.3586C-0.00218387 11.4194 -0.0173839 11.5124 0.0210161 11.5892C0.0552161 11.6578 0.125016 11.7 0.200016 11.7C0.209216 11.7 0.218616 11.6994 0.228016 11.698C0.309016 11.6866 2.19062 11.4156 3.55142 10.6304C4.32442 10.9422 5.14762 11.1 6.00002 11.1C9.30842 11.1 12 8.67765 12 5.70005C12 2.72245 9.30842 0.300049 6.00002 0.300049Z" fill="#4F4F4F"/>
</svg>
