<svg width="8" height="12" viewBox="0 0 8 12" fill="none" xmlns="http://www.w3.org/2000/svg">
<path d="M2.13773 2.48276H5.86187C6.06875 2.48276 6.27566 2.31724 6.27566 2.06897V1.65517C6.27566 1.4069 6.11014 1.24138 5.86187 1.24138H5.03428V0.827586C5.03428 0.372403 4.66185 0 4.20669 0H3.7929C3.33772 0 2.96531 0.372403 2.96531 0.827586V1.24138H2.13773C1.93084 1.24138 1.72393 1.4069 1.72393 1.65517V2.06897C1.72393 2.31724 1.88945 2.48276 2.13773 2.48276ZM3.99979 0.827586C4.12391 0.827586 4.20667 0.910345 4.20667 1.03447C4.20667 1.1586 4.12391 1.24136 3.99979 1.24136C3.87566 1.24136 3.7929 1.1586 3.7929 1.03447C3.7929 0.910345 3.87566 0.827586 3.99979 0.827586Z" fill="#4F4F4F"/>
<path d="M2.13783 9.10341H1.72404V9.5172H2.13783V9.10341Z" fill="#4F4F4F"/>
<path d="M2.13783 4.9655H1.72404V5.37929H2.13783V4.9655Z" fill="#4F4F4F"/>
<path d="M7.10333 1.65513H6.68954V2.06892C6.68954 2.5241 6.31711 2.89651 5.86195 2.89651H2.13781C1.68263 2.89651 1.31023 2.5241 1.31023 2.06892V1.65513H0.896434C0.441251 1.65513 0.0688477 2.02753 0.0688477 2.48271V11.1724C0.0688477 11.6275 0.441251 12 0.896434 12H7.10333C7.55849 12 7.93092 11.6275 7.93092 11.1724V2.48271C7.93092 2.02753 7.55849 1.65513 7.10333 1.65513ZM2.55161 9.93099H1.31023V8.68961H2.55161V9.93099ZM2.55161 7.86203H1.31023V6.62065H2.55161V7.86203ZM2.55161 5.79306H1.31023V4.55168H2.55161V5.79306ZM6.68954 9.5172H3.37919V9.1034H6.68954V9.5172ZM6.68954 7.44823H3.37919V7.03444H6.68954V7.44823ZM6.68954 5.37927H3.37919V4.96547H6.68954V5.37927Z" fill="#4F4F4F"/>
<path d="M2.13783 7.0345H1.72404V7.4483H2.13783V7.0345Z" fill="#4F4F4F"/>
</svg>
