<svg width="12" height="12" viewBox="0 0 12 12" fill="none" xmlns="http://www.w3.org/2000/svg">
<path d="M4.94712 7.24196C4.94712 7.07671 4.84558 6.93518 4.70158 6.87615H0.245536C0.101536 6.93522 0 7.07671 0 7.24196C0 8.60769 1.10962 9.71876 2.47358 9.71876C3.8375 9.71876 4.94712 8.60769 4.94712 7.24196Z" fill="#4F4F4F"/>
<path d="M11.7544 6.87615H7.29835C7.15435 6.93518 7.05282 7.07671 7.05282 7.24196C7.05282 8.60769 8.16247 9.71876 9.52638 9.71876C10.8903 9.71876 12 8.60769 12 7.24196C11.9999 7.07671 11.8984 6.93522 11.7544 6.87615Z" fill="#4F4F4F"/>
<path d="M7.95671 10.8224H6.39529V3.13407H8.92697L7.57735 6.2832H8.43747L9.52644 3.74223L10.6154 6.2832H11.4755L10.0624 2.98607C10.3685 2.80304 10.5739 2.46838 10.5739 2.08656C10.5739 1.50894 10.104 1.03904 9.5264 1.03904C9.30814 1.03904 9.13113 1.21605 9.13113 1.43432C9.13113 1.65258 9.30814 1.82959 9.5264 1.82959C9.6681 1.82959 9.78333 1.9449 9.78333 2.08652C9.78333 2.22817 9.66806 2.34345 9.5264 2.34345H6.39525V0.782114C6.39525 0.563851 6.21828 0.386841 5.99998 0.386841C5.78167 0.386841 5.60471 0.563851 5.60471 0.782114V2.34353H2.47359C2.3319 2.34353 2.21666 2.22821 2.21666 2.0866C2.21666 1.94494 2.33194 1.82967 2.47359 1.82967C2.69186 1.82967 2.86887 1.65266 2.86887 1.4344C2.86887 1.21613 2.69186 1.03912 2.47359 1.03912C1.89598 1.03912 1.42608 1.50902 1.42608 2.08664C1.42608 2.46846 1.63153 2.80308 1.93755 2.98615L0.524463 6.28329H1.38458L2.47355 3.74232L3.56252 6.28329H4.42264L3.07307 3.13407H5.60475V10.8224H4.04337C3.82507 10.8224 3.6481 10.9994 3.6481 11.2177C3.6481 11.436 3.82507 11.613 4.04337 11.613H7.95671C8.17501 11.613 8.35198 11.436 8.35198 11.2177C8.35198 10.9994 8.17501 10.8224 7.95671 10.8224Z" fill="#4F4F4F"/>
</svg>
