<svg width="12" height="12" viewBox="0 0 12 12" fill="none" xmlns="http://www.w3.org/2000/svg">
<path d="M1.92138 6.56251H8.43829C8.74894 6.56251 9.00078 6.31066 9.00078 6.00001C9.00078 5.68936 8.74894 5.43751 8.43829 5.43751H1.92138L2.64865 4.71024C2.86833 4.49057 2.86833 4.13444 2.64865 3.91476C2.42902 3.69509 2.07284 3.69509 1.85317 3.91476L0.165751 5.60221C0.152588 5.61538 0.140138 5.62917 0.128363 5.64357C0.123226 5.64984 0.118764 5.65647 0.113926 5.66289C0.107739 5.67114 0.101364 5.6792 0.0956261 5.68779C0.0903762 5.69562 0.0858387 5.70376 0.0810387 5.71179C0.0764262 5.71951 0.0715887 5.72705 0.0673513 5.735C0.0629263 5.74325 0.0592138 5.75172 0.0552388 5.76012C0.0513388 5.76834 0.0472513 5.77644 0.0437639 5.78484C0.0403889 5.79305 0.0376139 5.80141 0.0346514 5.80974C0.0313889 5.81874 0.0279389 5.82762 0.025164 5.83681C0.0226515 5.84514 0.020814 5.85357 0.018714 5.86201C0.0163515 5.87135 0.0137265 5.88065 0.0118515 5.89017C0.00993902 5.89989 0.00877653 5.90971 0.00738903 5.9195C0.00618904 5.92786 0.00457655 5.93611 0.00375155 5.94458C0.00195156 5.96273 0.00101406 5.981 0.000976562 5.99922C0.000976562 5.99896 0.000976562 5.99948 0.000976562 5.99922C0.000976562 5.99948 0.000976562 6.00061 0.000976562 6.00087C0.00101406 6.01913 0.00195156 6.03736 0.00375155 6.05555C0.00457655 6.06391 0.00615154 6.07205 0.00731403 6.08033C0.00873903 6.09023 0.00990152 6.10013 0.0118515 6.10996C0.0137265 6.11941 0.016314 6.12856 0.0186765 6.13782C0.020814 6.14633 0.022689 6.15492 0.0252389 6.16336C0.0279764 6.1724 0.0313889 6.18113 0.0345389 6.18998C0.0375764 6.19846 0.0403514 6.20697 0.0438014 6.2153C0.0472138 6.22355 0.0512263 6.23146 0.0550513 6.23952C0.0591013 6.24811 0.0629263 6.25677 0.0674263 6.26521C0.0715512 6.27289 0.0762387 6.28021 0.0807012 6.28767C0.0856137 6.29596 0.0903012 6.30432 0.0957011 6.31238C0.101176 6.32059 0.107289 6.32828 0.113176 6.33619C0.118276 6.34298 0.123001 6.34999 0.128438 6.35659C0.139651 6.37024 0.151538 6.38333 0.163951 6.39589C0.164551 6.39649 0.165038 6.39717 0.165638 6.39777L1.85313 8.08529C1.96301 8.19513 2.10693 8.25007 2.25089 8.25007C2.39482 8.25003 2.53882 8.19513 2.64861 8.08533C2.86829 7.86566 2.86829 7.50952 2.64865 7.28985L1.92138 6.56251Z" fill="#4F4F4F"/>
<path d="M11.4375 0.9375H4.31253C4.00188 0.9375 3.75004 1.18935 3.75004 1.5V3.74998C3.75004 4.06063 4.00188 4.31248 4.31253 4.31248C4.62318 4.31248 4.87503 4.06063 4.87503 3.74998V2.06249H10.875V9.93748H4.87503V8.24995C4.87503 7.93931 4.62318 7.68746 4.31253 7.68746C4.00188 7.68746 3.75004 7.93931 3.75004 8.24995V10.5C3.75004 10.8106 4.00188 11.0625 4.31253 11.0625H11.4375C11.7481 11.0625 12 10.8106 12 10.5V1.5C12 1.18935 11.7481 0.9375 11.4375 0.9375Z" fill="#4F4F4F"/>
</svg>
