<svg id="Слой_1" data-name="Слой 1" xmlns="http://www.w3.org/2000/svg" viewBox="0 0 14 13"><defs><style>.cls-1{fill:#e7333b;}</style></defs><title>twitter</title><g id="Слой_2" data-name="Слой 2"><g id="Слой_1-2" data-name="Слой 1-2"><path class="cls-1" d="M15,2a5,5,0,0,1-1.65.51A3.32,3.32,0,0,0,14.62.74a5.22,5.22,0,0,1-1.83.79,2.74,2.74,0,0,0-2.1-1A3.09,3.09,0,0,0,7.83,3.78a3.81,3.81,0,0,0,.07.75A7.87,7.87,0,0,1,2,1.1a3.6,3.6,0,0,0-.38,1.65A3.41,3.41,0,0,0,2.86,5.48a2.62,2.62,0,0,1-1.3-.41v.07a3.23,3.23,0,0,0,2.31,3.2,3.24,3.24,0,0,1-.76.11,2,2,0,0,1-.54-.07,3,3,0,0,0,2.68,2.33,5.29,5.29,0,0,1-3.57,1.36A5.19,5.19,0,0,1,1,12,7.36,7.36,0,0,0,5.38,13.5c5.24,0,8.17-5,8.17-9.29V3.74A6.61,6.61,0,0,0,15,2Z" transform="translate(-1 -0.5)"/></g></g></svg>