<svg width="40" height="18" viewBox="0 0 40 18" fill="none" xmlns="http://www.w3.org/2000/svg">
<g clip-path="url(#clip0)">
<path d="M19.5176 9.21991H14.6918C14.6382 9.21991 14.6114 9.24581 14.6114 9.29761C14.4773 11.3955 14.0752 13.6746 13.4854 15.5134V15.5911C13.5122 15.617 13.539 15.617 13.5658 15.617H15.228C15.2548 15.617 15.3084 15.5911 15.3084 15.5652C15.7642 14.1408 16.1395 12.276 16.2736 10.6962H17.8554V15.5393C17.8554 15.5911 17.8822 15.617 17.9358 15.617H19.5176C19.5712 15.617 19.598 15.5911 19.598 15.5393V9.32351C19.598 9.27171 19.5712 9.21991 19.5176 9.21991ZM39.9197 9.21991H38.3379C38.2843 9.21991 38.2575 9.24581 38.2575 9.29761V14.1149C37.909 14.2185 37.5605 14.2444 37.1851 14.2444C36.1395 14.2444 35.8983 13.9336 35.8983 12.5868V9.32351C35.8983 9.27171 35.8715 9.24581 35.8178 9.24581H34.2361C34.1824 9.24581 34.1556 9.27171 34.1556 9.32351V12.794C34.1556 14.9696 34.9063 15.8242 36.8634 15.8242C37.9626 15.8242 39.2227 15.5393 39.9465 15.2803C39.9733 15.2803 40.0001 15.2285 40.0001 15.2026V9.32351C40.0001 9.27171 39.9733 9.21991 39.9197 9.21991ZM6.54169 9.24581H4.93311C4.87949 9.24581 4.85268 9.27171 4.85268 9.29761C4.61139 10.2559 4.10201 11.8616 3.40496 13.5451L1.79638 9.27171C1.79638 9.24581 1.74276 9.21991 1.71595 9.21991H0.107372C0.0805625 9.21991 0.0537528 9.24581 0.0269432 9.24581C0.000133525 9.27171 0.000133525 9.29761 0.0269432 9.32351L2.43981 15.6947C2.19853 16.1868 1.95724 16.6012 1.74276 16.9897C1.5819 17.2746 1.42105 17.5595 1.26019 17.8703C1.23338 17.8962 1.26019 17.9221 1.26019 17.948C1.287 17.9739 1.31381 17.9998 1.34062 17.9998H3.08324C3.11005 17.9998 3.13686 17.9739 3.16367 17.948C3.45858 17.4041 3.83391 16.6271 4.18244 15.8501C5.20121 13.5192 6.03231 11.3437 6.64893 9.34941C6.64893 9.32351 6.64893 9.29761 6.62212 9.27171C6.59531 9.24581 6.5685 9.24581 6.54169 9.24581ZM12.279 14.1408C12.279 14.1149 12.2521 14.089 12.2253 14.089H12.1449C11.7696 14.2185 11.0457 14.348 10.5363 14.348C9.43713 14.348 8.92775 14.0631 8.92775 12.4314C8.92775 11.1365 9.08861 10.5149 10.5363 10.5149C10.9385 10.5149 11.3406 10.5667 11.8232 10.7221C11.8768 10.7221 11.9036 10.7221 11.9304 10.6703C12.1181 10.3336 12.3326 9.94509 12.5739 9.4271V9.34941C12.5739 9.32351 12.5471 9.29761 12.5202 9.29761C11.8768 9.09041 11.0993 8.98682 10.4291 8.98682C8.12346 8.98682 7.10469 10.0228 7.10469 12.3796C7.10469 14.7624 8.12346 15.8242 10.4291 15.8242C10.9921 15.8242 12.1449 15.6947 12.6811 15.4875C12.7347 15.4616 12.7347 15.4357 12.7347 15.3839L12.279 14.1408ZM27.2656 9.24581H25.657C25.6302 9.24581 25.5765 9.27171 25.5765 9.29761C25.3353 10.2559 24.8259 11.8616 24.1288 13.5451L22.5202 9.27171C22.5202 9.24581 22.4666 9.21991 22.4398 9.21991H20.8312C20.8044 9.21991 20.7776 9.24581 20.7508 9.24581C20.724 9.27171 20.724 9.29761 20.7508 9.32351L23.1637 15.6947C22.9224 16.1868 22.6811 16.5753 22.4666 16.9897C22.3058 17.2746 22.1449 17.5595 21.984 17.8703C21.9572 17.8962 21.984 17.9221 21.984 17.948C22.0109 17.9739 22.0377 17.9998 22.0645 17.9998H23.8071C23.8339 17.9998 23.8607 17.9739 23.8875 17.948C24.1824 17.4041 24.5578 16.6271 24.9063 15.8501C25.9251 13.5192 26.7562 11.3437 27.346 9.34941C27.346 9.32351 27.346 9.29761 27.3192 9.27171C27.3192 9.24581 27.2924 9.24581 27.2656 9.24581ZM33.1637 9.21991H28.4988C28.4452 9.21991 28.4184 9.24581 28.4184 9.29761V15.5393C28.4184 15.5911 28.4452 15.617 28.4988 15.617H30.0806C30.1342 15.617 30.161 15.5911 30.161 15.5393V10.7221H32.6007C32.6275 10.7221 32.6811 10.6962 32.6811 10.6703C32.8688 10.2559 33.0564 9.78969 33.2441 9.34941V9.27171C33.2173 9.24581 33.1905 9.21991 33.1637 9.21991Z" fill="white"/>
<path d="M8.39142 5.38705C7.34584 5.38705 7.02413 5.10216 7.02413 3.4187C7.02413 1.60576 7.37265 1.45036 8.39142 1.45036C9.41019 1.45036 9.78552 1.60576 9.78552 3.4187C9.78552 5.12806 9.437 5.38705 8.39142 5.38705ZM8.39142 0.0258993C6.1126 0.0258993 5.22788 0.958274 5.22788 3.39281C5.22788 5.85324 6.1126 6.81151 8.39142 6.81151C10.6702 6.81151 11.5818 5.85324 11.5818 3.39281C11.5818 0.984173 10.6702 0.0258993 8.39142 0.0258993ZM17.8552 5.12806C17.8552 5.10216 17.8284 5.07626 17.8016 5.07626H17.7212C17.3458 5.20576 16.622 5.33525 16.1126 5.33525C15.0134 5.33525 14.504 5.05036 14.504 3.4187C14.504 2.12374 14.6649 1.50216 16.1126 1.50216C16.5147 1.50216 16.9169 1.55396 17.3995 1.70935C17.4263 1.70935 17.4799 1.70935 17.5067 1.65755C17.6944 1.32086 17.9088 0.932374 18.1501 0.414388V0.336691C18.1501 0.310791 18.1233 0.284892 18.0965 0.284892C17.4799 0.103597 16.7024 0 16.0322 0C13.7265 0 12.7078 1.03597 12.7078 3.39281C12.7078 5.77554 13.7265 6.83741 16.0322 6.83741C16.5952 6.83741 17.748 6.70791 18.2842 6.50072C18.3378 6.47482 18.3378 6.44892 18.3378 6.39712L17.8552 5.12806ZM4.74531 0.207194H0.080429C0.0268097 0.207194 0 0.258993 0 0.310791V6.55252C0 6.60432 0.0268097 6.63022 0.080429 6.63022H1.6622C1.71582 6.63022 1.74263 6.60432 1.74263 6.55252V1.70935H4.18231C4.20912 1.70935 4.23593 1.68345 4.26273 1.65755C4.4504 1.24317 4.63807 0.776978 4.82574 0.336691V0.258993C4.79893 0.233094 4.77212 0.207194 4.74531 0.207194Z" fill="white"/>
</g>
<defs>
<clipPath id="clip0">
<rect width="40" height="18" fill="white"/>
</clipPath>
</defs>
</svg>