<svg xmlns="http://www.w3.org/2000/svg" xmlns:xlink="http://www.w3.org/1999/xlink" viewBox="0 0 19 10"><defs><style>.cls-1{fill:none;}.cls-2{clip-path:url(#clip-path);}.cls-3{fill:#f41e2a;}</style><clipPath id="clip-path" transform="translate(0 0)"><rect class="cls-1" width="19" height="10"/></clipPath></defs><title>vk</title><g class="cls-2"><path class="cls-3" d="M16.35,6.36A23.61,23.61,0,0,1,18.21,8.1a5.19,5.19,0,0,1,.67.89.63.63,0,0,1-.42,1H15.69a2.22,2.22,0,0,1-1.76-.67c-.38-.36-.74-.75-1.11-1.12a2.49,2.49,0,0,0-.5-.41.6.6,0,0,0-.92.2,2.57,2.57,0,0,0-.29,1.21c0,.6-.23.76-.88.79a7.59,7.59,0,0,1-4-.79A8.67,8.67,0,0,1,3.6,6.88,30.28,30.28,0,0,1,.1,1.06C-.13.6,0,.36.58.35c.9,0,1.81,0,2.71,0A.78.78,0,0,1,4,.87,15.49,15.49,0,0,0,5.88,4a2.9,2.9,0,0,0,.69.71.44.44,0,0,0,.72-.2,2.2,2.2,0,0,0,.16-.66,9.08,9.08,0,0,0,0-2.33A1,1,0,0,0,6.52.67c-.27,0-.23-.14-.1-.28A1,1,0,0,1,7.27,0H10.4c.49.09.6.3.66.76V4c0,.18.09.71.44.82s.46-.12.62-.28A9.7,9.7,0,0,0,13.89,2c.22-.4.4-.81.58-1.22a.65.65,0,0,1,.7-.45h3a1.23,1.23,0,0,1,.27,0c.51.08.65.28.49.74A7.08,7.08,0,0,1,17.74,3c-.5.65-1,1.27-1.53,1.92s-.43.89.14,1.41" transform="translate(0 0)"/></g></svg>