<svg id="Layer_1" data-name="Layer 1" xmlns="http://www.w3.org/2000/svg" viewBox="0 0 16 13"><defs><style>.cls-1{fill:#f41e2a;}</style></defs><title>youtube</title><path class="cls-1" d="M15.65,2.2A2,2,0,0,0,14,.5,38.89,38.89,0,0,0,8,0,38.89,38.89,0,0,0,2,.5,2.06,2.06,0,0,0,.35,2.24,22.65,22.65,0,0,0,0,6.48a23.49,23.49,0,0,0,.35,4.28A2.11,2.11,0,0,0,2,12.5,39.37,39.37,0,0,0,8,13a39.37,39.37,0,0,0,6-.5,2,2,0,0,0,1.66-1.74A27.78,27.78,0,0,0,16,6.48,23.49,23.49,0,0,0,15.65,2.2ZM5.56,9.72V3.24L11.7,6.48Z"/></svg>