<svg id="Слой_1" data-name="Слой 1" xmlns="http://www.w3.org/2000/svg" viewBox="0 0 14 14"><defs><style>.cls-1{fill:#f41e2a;}</style></defs><title>instagram</title><g id="Filled"><path class="cls-1" d="M15.11,5H8.89A3.85,3.85,0,0,0,5,8.89v6.22A3.85,3.85,0,0,0,8.89,19h6.22A3.85,3.85,0,0,0,19,15.11V8.89A3.85,3.85,0,0,0,15.11,5ZM12,15.89A3.89,3.89,0,1,1,15.89,12,3.85,3.85,0,0,1,12,15.89Zm4.67-7.78a.73.73,0,0,1-.78-.78.78.78,0,0,1,1.55,0A.73.73,0,0,1,16.67,8.11Z" transform="translate(-5 -5)"/><circle class="cls-1" cx="7" cy="7" r="2.33"/></g></svg>