<svg id="Capa_1" data-name="Capa 1" xmlns="http://www.w3.org/2000/svg" viewBox="0 0 31.01 40.58"><defs><style>.cls-1{fill:#ff2433;}</style></defs><title>sberegheniya</title><path class="cls-1" d="M417.78,204" transform="translate(-426.66 -205.37)"/><path class="cls-1" d="M449.57,246H434.76a8.1,8.1,0,0,1-8.1-8.1V227.53a15.51,15.51,0,0,1,31,0v10.32A8.1,8.1,0,0,1,449.57,246Zm-7.4-32.33a13.93,13.93,0,0,0-13.92,13.91v10.32a6.52,6.52,0,0,0,6.51,6.51h14.81a6.52,6.52,0,0,0,6.51-6.51V227.53A13.93,13.93,0,0,0,442.17,213.62Z" transform="translate(-426.66 -205.37)"/><path class="cls-1" d="M445,213.26h-5.57a.8.8,0,0,1-.59-.27l-5.66-6.29a.8.8,0,0,1,.59-1.33h5.87a.79.79,0,0,1,.39.11l2.19,1.24,2.27-1.25a.83.83,0,0,1,.38-.1h5.6a.8.8,0,0,1,.6,1.32L445.55,213A.78.78,0,0,1,445,213.26Zm-5.21-1.59h4.85l4.08-4.71H445l-2.47,1.36a.78.78,0,0,1-.77,0l-2.4-1.36h-3.87Z" transform="translate(-426.66 -205.37)"/><path class="cls-1" d="M443.57,237.92v-1.18a4.12,4.12,0,0,0-1-8.12,2.07,2.07,0,1,1,2.07-2.07,1,1,0,0,0,2.07,0,4.14,4.14,0,0,0-3.1-4v-1.18a1,1,0,1,0-2.07,0v1.18a4.12,4.12,0,0,0,1,8.12,2.07,2.07,0,1,1-2.06,2.07,1,1,0,0,0-2.07,0,4.14,4.14,0,0,0,3.1,4v1.18a1,1,0,0,0,2.07,0Z" transform="translate(-426.66 -205.37)"/></svg>