<svg width="14" height="14" viewBox="0 0 14 14" fill="none" xmlns="http://www.w3.org/2000/svg">
<path d="M0 1C0 0.447715 0.447715 0 1 0H5C5.55228 0 6 0.447715 6 1V5C6 5.55228 5.55228 6 5 6H1C0.447715 6 0 5.55228 0 5V1Z" fill="#4F4F4F"/>
<path d="M0 9C0 8.44772 0.447715 8 1 8H5C5.55228 8 6 8.44772 6 9V13C6 13.5523 5.55228 14 5 14H1C0.447715 14 0 13.5523 0 13V9Z" fill="#4F4F4F"/>
<path d="M8 1C8 0.447715 8.44772 0 9 0H13C13.5523 0 14 0.447715 14 1V5C14 5.55228 13.5523 6 13 6H9C8.44772 6 8 5.55228 8 5V1Z" fill="#4F4F4F"/>
<path d="M8 9C8 8.44772 8.44772 8 9 8H13C13.5523 8 14 8.44772 14 9V13C14 13.5523 13.5523 14 13 14H9C8.44772 14 8 13.5523 8 13V9Z" fill="#4F4F4F"/>
</svg>
