<svg id="Capa_1" data-name="Capa 1" xmlns="http://www.w3.org/2000/svg" viewBox="0 0 39 36"><defs><style>.cls-1{fill:#ff2433;}</style></defs><title>vklad</title><path class="cls-1" d="M417.78,204" transform="translate(-358.62 -225.33)"/><path class="cls-1" d="M393.61,261.33H365.8a4,4,0,0,1-4-4V229.36a4,4,0,0,1,4-4h27.81a4,4,0,0,1,4,4v27.95A4,4,0,0,1,393.61,261.33ZM365.8,226.88a2.48,2.48,0,0,0-2.47,2.48v27.95a2.48,2.48,0,0,0,2.47,2.48h27.81a2.48,2.48,0,0,0,2.48-2.48V229.36a2.48,2.48,0,0,0-2.48-2.48Z" transform="translate(-358.62 -225.33)"/><path class="cls-1" d="M379.71,252.9a9.57,9.57,0,1,1,9.52-9.57A9.55,9.55,0,0,1,379.71,252.9Zm0-17.58a8,8,0,1,0,8,8A8,8,0,0,0,379.71,235.32Z" transform="translate(-358.62 -225.33)"/><path class="cls-1" d="M380.48,239v-4.45h-1.54v4.36A5.28,5.28,0,0,1,380.48,239Z" transform="translate(-358.62 -225.33)"/><path class="cls-1" d="M379.17,248.15a2.18,2.18,0,0,1-.23-.09v4.06h1.54v-3.86A3.48,3.48,0,0,1,379.17,248.15Z" transform="translate(-358.62 -225.33)"/><path class="cls-1" d="M383.92,242.56a5.74,5.74,0,0,1,0,1.55h4.52v-1.55Z" transform="translate(-358.62 -225.33)"/><path class="cls-1" d="M375.74,242.72c0-.05,0-.11,0-.16H371v1.55h4.69A3.61,3.61,0,0,1,375.74,242.72Z" transform="translate(-358.62 -225.33)"/><path class="cls-1" d="M383.29,240.83l3.15-3.17-1.09-1.09-3.13,3.15A3.9,3.9,0,0,1,383.29,240.83Z" transform="translate(-358.62 -225.33)"/><path class="cls-1" d="M376.25,245.72,373,249l1.09,1.1L377.2,247A5.4,5.4,0,0,1,376.25,245.72Z" transform="translate(-358.62 -225.33)"/><path class="cls-1" d="M377,239.56l-3-3L373,237.66l3,3.07A3.15,3.15,0,0,1,377,239.56Z" transform="translate(-358.62 -225.33)"/><path class="cls-1" d="M383.46,246a4.22,4.22,0,0,1-.9,1.28l2.79,2.81,1.09-1.1Z" transform="translate(-358.62 -225.33)"/><path class="cls-1" d="M379.71,248.89a5.56,5.56,0,1,1,5.53-5.56A5.55,5.55,0,0,1,379.71,248.89Zm0-9.57a4,4,0,1,0,4,4A4,4,0,0,0,379.71,239.32Z" transform="translate(-358.62 -225.33)"/><rect class="cls-1" y="13.53" width="7.88" height="1.55"/><rect class="cls-1" y="20.92" width="7.88" height="1.55"/></svg>