<svg id="Capa_1" data-name="Capa 1" xmlns="http://www.w3.org/2000/svg" viewBox="0 0 36 33"><defs><style>.cls-1{fill:#ff2433;}</style></defs><title>zaim</title><path class="cls-1" d="M446.05,229.63H446l-34.38-2.11a.81.81,0,0,1-.76-.79V204.82a.82.82,0,0,1,.87-.79l34.38,2.11a.8.8,0,0,1,.75.79v21.91a.77.77,0,0,1-.25.57A.82.82,0,0,1,446.05,229.63ZM412.47,226l32.77,2V207.67l-32.77-2Z" transform="translate(-410.85 -196.63)"/><path class="cls-1" d="M411.87,205.58l-.41-1.52,29.12-7.4a.8.8,0,0,1,.7.13.79.79,0,0,1,.32.63v5.76H440v-4.74Z" transform="translate(-410.85 -196.63)"/><path class="cls-1" d="M446.05,222.38H446l-9.08-.47a4.42,4.42,0,0,1-4.26-4.37,4.27,4.27,0,0,1,1.39-3.16,4.48,4.48,0,0,1,3.32-1.2l8.72.45a.8.8,0,0,1,.76.79v7.17a.76.76,0,0,1-.25.57A.82.82,0,0,1,446.05,222.38Zm-8.92-7.63a2.85,2.85,0,0,0-2,.77,2.71,2.71,0,0,0-.89,2,2.82,2.82,0,0,0,2.72,2.79h0l8.24.43v-5.59l-8-.41Z" transform="translate(-410.85 -196.63)"/><path class="cls-1" d="M417.78,204" transform="translate(-410.85 -196.63)"/></svg>