<svg id="icons" xmlns="http://www.w3.org/2000/svg" viewBox="0 0 61.94 37.24"><defs><style>.cls-1{fill:none;stroke:#000;stroke-miterlimit:10;}</style></defs><title>Монтажная область 1</title><path class="cls-1" d="M33.49,26.86h3.94A1.54,1.54,0,0,1,39,28.4v8.35a0,0,0,0,1,0,0H32a0,0,0,0,1,0,0V28.4A1.54,1.54,0,0,1,33.49,26.86Z"/><rect class="cls-1" x="32.63" y="16.49" width="5.67" height="5.67"/><rect class="cls-1" x="12.05" y="25.14" width="5.67" height="5.67"/><rect class="cls-1" x="43.8" y="16.49" width="5.67" height="5.67"/><rect class="cls-1" x="43.8" y="26.86" width="5.67" height="5.67"/><polygon class="cls-1" points="57.38 13.93 41.44 0.65 25.03 13.93 25.03 36.74 57.38 36.74 57.38 13.93"/><polygon class="cls-1" points="25.03 22.07 14.78 13.53 4.23 22.07 4.23 36.74 25.03 36.74 25.03 22.07"/><line class="cls-1" y1="36.74" x2="61.94" y2="36.74"/></svg>