<svg id="icons" xmlns="http://www.w3.org/2000/svg" viewBox="0 0 49.24 69.15">

<defs><style>.cls-1{fill:none;stroke:#000;stroke-miterlimit:10;}</style></defs>

<rect class="cls-1" x="7.75" width="34" height="68.63"/><path class="cls-1" d="M21.35,50.17h6.81a1.54,1.54,0,0,1,1.54,1.54V68.63a0,0,0,0,1,0,0H19.81a0,0,0,0,1,0,0V51.71A1.54,1.54,0,0,1,21.35,50.17Z"/><line class="cls-1" y1="68.63" x2="49.25" y2="68.63"/><rect class="cls-1" x="11.92" y="3.58" width="5.67" height="5.67"/><rect class="cls-1" x="11.92" y="12.75" width="5.67" height="5.67"/><rect class="cls-1" x="11.92" y="21.92" width="5.67" height="5.67"/><rect class="cls-1" x="11.92" y="31.08" width="5.67" height="5.67"/><rect class="cls-1" x="11.92" y="40.25" width="5.67" height="5.67"/><rect class="cls-1" x="21.79" y="3.58" width="5.67" height="5.67"/><rect class="cls-1" x="21.79" y="12.75" width="5.67" height="5.67"/><rect class="cls-1" x="21.79" y="21.92" width="5.67" height="5.67"/><rect class="cls-1" x="21.79" y="31.08" width="5.67" height="5.67"/><rect class="cls-1" x="21.79" y="40.25" width="5.67" height="5.67"/><rect class="cls-1" x="31.67" y="3.58" width="5.67" height="5.67"/><rect class="cls-1" x="31.67" y="12.75" width="5.67" height="5.67"/><rect class="cls-1" x="31.67" y="21.92" width="5.67" height="5.67"/><rect class="cls-1" x="31.67" y="31.08" width="5.67" height="5.67"/><rect class="cls-1" x="31.67" y="40.25" width="5.67" height="5.67"/></svg>