<svg xmlns="http://www.w3.org/2000/svg" viewBox="0 0 420 504.25021" height="504.25" width="420"><defs><clipPath id="b"><path d="M0 336.167h280V0H0v336.167z"/></clipPath><filter id="a" color-interpolation-filters="sRGB"><feFlood result="flood" flood-color="#000" flood-opacity=".529"/><feComposite result="composite1" operator="in" in2="SourceGraphic" in="flood"/><feGaussianBlur result="blur" stdDeviation="17" in="composite1"/><feOffset result="offset" dy="-7"/><feComposite result="composite2" in2="offset" in="SourceGraphic"/></filter></defs><g clip-path="url(#b)" filter="url(#a)" transform="matrix(1.25 0 0 -1.25 35 462.23)"><path d="M280 196.167c0-77.32-62.68-140-140-140s-140 62.68-140 140 62.68 140 140 140 140-62.68 140-140" fill="#fff"/><path d="M141.096 101.22c-52.906 0-95.947 43.043-95.947 95.945 0 52.906 43.041 95.948 95.947 95.948 25.67 0 48.965-10.192 66.2-26.668l14.586 15.462c-21.038 20.068-49.487 32.427-80.786 32.427-64.606 0-117.169-52.562-117.169-117.17C23.927 132.562 76.49 80 141.097 80c30.858 0 58.95 12.01 79.897 31.578l-14.609 15.484c-17.144-15.977-40.06-25.842-65.289-25.842" fill="#f24b4d"/><path d="M141.096 150.41c-25.783 0-46.759 20.974-46.759 46.755 0 25.784 20.976 46.76 46.76 46.76 12.623 0 24.072-5.05 32.494-13.211l14.541 15.416c-12.223 11.748-28.784 19.017-47.036 19.017-37.485 0-67.98-30.497-67.98-67.982 0-37.483 30.495-67.976 67.98-67.976 17.811 0 33.993 6.939 46.127 18.187l-14.542 15.414c-8.33-7.658-19.403-12.38-31.585-12.38" fill="#f24b4d"/><path d="M159.54 197.165c0-10.188-8.257-18.444-18.445-18.444s-18.446 8.256-18.446 18.444c0 10.19 8.258 18.446 18.446 18.446 10.188 0 18.446-8.256 18.446-18.446" fill="#f24b4d"/><path d="M173.81 75L140 0l-33.81 75h67.62z" fill="#fff"/></g></svg>