<svg xmlns="http://www.w3.org/2000/svg" viewBox="0 0 29.53 34.72" fill="#848484"><path d="M412.57,292.92l1.18-1.48a4.69,4.69,0,0,0-.73-6.59l-.08-.07a4.68,4.68,0,0,0-6.59.74L405.17,287Zm0,0" transform="translate(-385.87 -283.76)"/><path d="M394.63,314.84l-7-5.58c-.11.39-.17.73-.17.73l-1.59,7.65a.69.69,0,0,0,.95.77l7.12-3.24s.31-.13.67-.33Zm0,0" transform="translate(-385.87 -283.76)"/><polygon class="cls-1" points="25.76 10.34 25.76 10.34 25.76 10.34 18.36 4.4 2.58 24.07 9.99 29.99 19.3 18.36 25.76 10.34"/><path d="M.76,32.48H28.42a1.12,1.12,0,0,1,1.12,1.12v0a1.12,1.12,0,0,1-1.12,1.12H.76a0,0,0,0,1,0,0V32.48A0,0,0,0,1,.76,32.48Z"/></svg>