<svg xmlns="http://www.w3.org/2000/svg" viewBox="0 0 30.59 30.59" fill="#abd1ee"><path d="M400.55,285.14a15.3,15.3,0,1,0,15.3,15.29,15.3,15.3,0,0,0-15.3-15.29Zm3.19,23.71c-.79.31-1.42.54-1.88.7a4.77,4.77,0,0,1-1.63.25,3.24,3.24,0,0,1-2.23-.7,2.25,2.25,0,0,1-.79-1.77,6.18,6.18,0,0,1,.06-.85,8.8,8.8,0,0,1,.19-1l1-3.49c.09-.33.17-.65.22-.94a4.19,4.19,0,0,0,.09-.82,1.25,1.25,0,0,0-.28-.93,1.5,1.5,0,0,0-1-.26,3.13,3.13,0,0,0-.79.11l-.68.23.26-1.07c.64-.26,1.26-.48,1.85-.67a5.44,5.44,0,0,1,1.67-.29,3.21,3.21,0,0,1,2.19.69,2.29,2.29,0,0,1,.77,1.78c0,.16,0,.42-.05.8a5.29,5.29,0,0,1-.2,1.05l-1,3.47c-.08.28-.15.6-.22.95a5.41,5.41,0,0,0-.09.81,1.16,1.16,0,0,0,.31.95,1.7,1.7,0,0,0,1.07.25,3.23,3.23,0,0,0,.81-.13,3.82,3.82,0,0,0,.66-.22Zm-.17-14.09a2.46,2.46,0,0,1-3.31,0,2,2,0,0,1-.69-1.55,2.05,2.05,0,0,1,.69-1.55,2.49,2.49,0,0,1,3.31,0,2,2,0,0,1,.68,1.55,2,2,0,0,1-.68,1.55Zm0,0" transform="translate(-385.26 -285.14)"/></svg>