<svg width="115" height="115" viewBox="0 0 115 115" fill="none" xmlns="http://www.w3.org/2000/svg">
<path d="M57.5002 60.8977C71.7398 60.8977 83.2847 47.3857 83.2847 30.7179C83.2847 7.60432 71.7404 0.538452 57.5002 0.538452C43.2594 0.538452 31.7157 7.60432 31.7157 30.7179C31.716 47.3857 43.2597 60.8977 57.5002 60.8977Z" fill="#F7F7F7"/>
<path d="M114.438 105.318L101.429 76.014C100.834 74.6731 99.7889 73.5609 98.4879 72.8836L78.2993 62.3741C77.8541 62.1428 77.315 62.1878 76.9148 62.4908C71.2048 66.8095 64.4911 69.0923 57.5003 69.0923C50.5084 69.0923 43.7953 66.8095 38.0852 62.4908C37.6839 62.1878 37.1448 62.1428 36.6996 62.3741L16.5125 72.8836C15.2109 73.5609 14.1667 74.6725 13.5712 76.014L0.562568 105.318C-0.334295 107.339 -0.150482 109.65 1.05442 111.503C2.25877 113.356 4.29702 114.461 6.50699 114.461H108.493C110.703 114.461 112.742 113.355 113.946 111.503C115.15 109.65 115.335 107.338 114.438 105.318Z" fill="#F7F7F7"/>
</svg>
